<?xml version="1.0" encoding="utf-8"?>
<!-- Generator: Adobe Illustrator 16.0.0, SVG Export Plug-In . SVG Version: 6.00 Build 0)  -->
<!DOCTYPE svg PUBLIC "-//W3C//DTD SVG 1.1//EN" "http://www.w3.org/Graphics/SVG/1.1/DTD/svg11.dtd">
<svg version="1.1" id="Calque_1" xmlns="http://www.w3.org/2000/svg" xmlns:xlink="http://www.w3.org/1999/xlink" x="0px" y="0px"
	 width="1920px" height="1080px" viewBox="0 0 1920 1080" enable-background="new 0 0 1920 1080" xml:space="preserve">
<g opacity="0.8">
	<path fill="#A3CE8E" stroke="#6EB860" stroke-width="0.5" stroke-miterlimit="10" d="M-45.248,418.655
		c-0.116,0.193-0.189,0.398-0.189,0.617c0,1.002,1.337,1.813,2.986,1.813c1.338,0,2.455-0.537,2.834-1.275
		c0.05,0.018,0.1,0.035,0.151,0.053c0.404,0.711,1.499,1.223,2.805,1.223c1.366,0,2.506-0.561,2.861-1.32
		c0.069-0.027,0.138-0.057,0.207-0.086c0.305,0.805,1.486,1.406,2.904,1.406c1.649,0,2.986-0.811,2.986-1.813
		c0-0.385-0.201-0.74-0.538-1.035c-0.002,0-0.002-0.002-0.003-0.004c-1.129-1.129-1.244-3.737-1.254-4.063
		c0-0.012,0.002-0.022,0.002-0.034c0-3.414-3.262-6.182-7.286-6.182s-7.286,2.768-7.286,6.182c0,2.577-0.781,3.937-1.072,4.359
		L-45.248,418.655z"/>
	
		<ellipse transform="matrix(0.6639 -0.7479 0.7479 0.6639 -321.7534 108.178)" fill="#D5E7C2" cx="-40.537" cy="412.014" rx="1.991" ry="1.338"/>
	
		<ellipse transform="matrix(-0.7479 -0.6638 0.6638 -0.7479 -355.3185 703.8037)" fill="#D5E7C2" cx="-44.022" cy="419.369" rx="0.891" ry="0.623"/>
	
		<ellipse transform="matrix(-0.7479 -0.6638 0.6638 -0.7479 -344.5579 707.8901)" fill="#D5E7C2" cx="-37.866" cy="419.369" rx="0.891" ry="0.623"/>
	
		<ellipse transform="matrix(-0.748 -0.6636 0.6636 -0.748 -333.5806 712.0936)" fill="#D5E7C2" cx="-31.616" cy="419.369" rx="0.891" ry="0.623"/>
</g>
<rect fill="#A3CE8E" stroke="#6EB860" stroke-width="0.5" stroke-miterlimit="10" width="1920" height="1080"/>
<g>
	<g>
		<circle fill="#CEE3BD" cx="380.643" cy="509.251" r="10.976"/>
		
			<ellipse transform="matrix(0.8145 0.5801 -0.5801 0.8145 363.3284 -124.275)" fill="#A3CE8E" cx="376.015" cy="506.064" rx="1.947" ry="3.657"/>
	</g>
	<g>
		<circle fill="#CEE3BD" cx="371.415" cy="562.377" r="4.601"/>
		
			<ellipse transform="matrix(0.8144 0.5802 -0.5802 0.8144 394.1018 -110.2804)" fill="#A3CE8E" cx="369.475" cy="561.04" rx="0.816" ry="1.533"/>
	</g>
	<g>
		<circle fill="#CEE3BD" cx="380.04" cy="582.252" r="2.976"/>
		
			<ellipse transform="matrix(0.8141 0.5807 -0.5807 0.8141 407.9948 -111.892)" fill="#A3CE8E" cx="378.785" cy="581.387" rx="0.528" ry="0.992"/>
	</g>
	<g>
		<circle fill="#CEE3BD" cx="369.945" cy="600.361" r="2.336"/>
		
			<ellipse transform="matrix(0.8146 0.58 -0.58 0.8146 416.225 -102.825)" fill="#A3CE8E" cx="368.96" cy="599.684" rx="0.414" ry="0.777"/>
	</g>
	<g>
		<circle fill="#CEE3BD" cx="374.617" cy="609.111" r="2.336"/>
		
			<ellipse transform="matrix(0.8146 0.58 -0.58 0.8146 422.1662 -103.9125)" fill="#A3CE8E" cx="373.632" cy="608.434" rx="0.414" ry="0.777"/>
	</g>
	<g>
		<circle fill="#CEE3BD" cx="368.365" cy="617.885" r="2.336"/>
		
			<ellipse transform="matrix(0.8135 0.5816 -0.5816 0.8135 427.4682 -98.5458)" fill="#A3CE8E" cx="367.38" cy="617.206" rx="0.415" ry="0.778"/>
	</g>
	<g>
		<circle fill="#CEE3BD" cx="394.064" cy="539.822" r="6.101"/>
		
			<ellipse transform="matrix(0.8145 0.5801 -0.5801 0.8145 384.7675 -127.3209)" fill="#A3CE8E" cx="391.492" cy="538.05" rx="1.082" ry="2.033"/>
	</g>
</g>
<g>
	<g>
		<circle fill="#CEE3BD" cx="694.314" cy="324.75" r="16.346"/>
		
			<ellipse transform="matrix(0.8145 0.5802 -0.5802 0.8145 313.17 -339.4558)" fill="#A3CE8E" cx="687.422" cy="320.003" rx="2.899" ry="5.446"/>
	</g>
	<g>
		<circle fill="#CEE3BD" cx="680.57" cy="403.869" r="6.852"/>
		
			<ellipse transform="matrix(0.8143 0.5804 -0.5804 0.8143 359.0592 -318.7032)" fill="#A3CE8E" cx="677.681" cy="401.878" rx="1.216" ry="2.283"/>
	</g>
	<g>
		<circle fill="#CEE3BD" cx="693.415" cy="433.469" r="4.432"/>
		
			<ellipse transform="matrix(0.814 0.5809 -0.5809 0.814 379.6581 -321.3062)" fill="#A3CE8E" cx="691.546" cy="432.18" rx="0.786" ry="1.478"/>
	</g>
	<g>
		<circle fill="#CEE3BD" cx="678.382" cy="460.439" r="3.479"/>
		<path fill="#A3CE8E" d="M677.417,459.788c-0.371,0.521-0.897,0.782-1.175,0.584c-0.277-0.195-0.201-0.78,0.17-1.3
			c0.371-0.521,0.897-0.785,1.174-0.584C677.865,458.683,677.788,459.267,677.417,459.788z"/>
	</g>
	<g>
		<circle fill="#CEE3BD" cx="685.339" cy="473.471" r="3.479"/>
		<path fill="#A3CE8E" d="M684.375,472.819c-0.371,0.521-0.897,0.782-1.175,0.584c-0.277-0.195-0.202-0.78,0.17-1.3
			c0.371-0.521,0.897-0.785,1.174-0.584C684.822,471.714,684.746,472.298,684.375,472.819z"/>
	</g>
	<g>
		<circle fill="#CEE3BD" cx="676.028" cy="486.537" r="3.479"/>
		
			<ellipse transform="matrix(0.8135 0.5815 -0.5815 0.8135 408.1077 -301.7291)" fill="#A3CE8E" cx="674.561" cy="485.526" rx="0.618" ry="1.159"/>
	</g>
	<g>
		<circle fill="#CEE3BD" cx="714.302" cy="370.278" r="9.086"/>
		
			<ellipse transform="matrix(0.8145 0.5802 -0.5802 0.8145 345.1085 -344.005)" fill="#A3CE8E" cx="710.471" cy="367.64" rx="1.612" ry="3.028"/>
	</g>
</g>
<g>
	<g>
		<circle fill="#CEE3BD" cx="789.098" cy="844.455" r="7.6"/>
		
			<ellipse transform="matrix(0.8147 0.5799 -0.5799 0.8147 634.1054 -299.6675)" fill="#A3CE8E" cx="785.894" cy="842.249" rx="1.348" ry="2.532"/>
	</g>
	<g>
		<circle fill="#CEE3BD" cx="782.708" cy="881.241" r="3.186"/>
		
			<ellipse transform="matrix(0.8148 0.5798 -0.5798 0.8148 655.0994 -289.9595)" fill="#A3CE8E" cx="781.365" cy="880.316" rx="0.565" ry="1.062"/>
	</g>
	<g>
		<circle fill="#CEE3BD" cx="788.68" cy="895.004" r="2.06"/>
		
			<ellipse transform="matrix(0.814 0.5809 -0.5809 0.814 666.145 -291.2615)" fill="#A3CE8E" cx="787.812" cy="894.405" rx="0.366" ry="0.687"/>
	</g>
	<g>
		<circle fill="#CEE3BD" cx="781.691" cy="907.543" r="1.618"/>
		
			<ellipse transform="matrix(0.8144 0.5804 -0.5804 0.8144 671.4047 -284.8762)" fill="#A3CE8E" cx="781.009" cy="907.074" rx="0.287" ry="0.538"/>
	</g>
	<g>
		<circle fill="#CEE3BD" cx="784.926" cy="913.603" r="1.617"/>
		
			<ellipse transform="matrix(0.8152 0.5792 -0.5792 0.8152 673.8586 -285.4768)" fill="#A3CE8E" cx="784.244" cy="913.133" rx="0.287" ry="0.539"/>
	</g>
	<g>
		<circle fill="#CEE3BD" cx="780.596" cy="919.677" r="1.617"/>
		
			<ellipse transform="matrix(0.8133 0.5819 -0.5819 0.8133 680.5007 -282.1776)" fill="#A3CE8E" cx="779.915" cy="919.207" rx="0.287" ry="0.539"/>
	</g>
	<g>
		<circle fill="#CEE3BD" cx="798.392" cy="865.623" r="4.224"/>
		
			<ellipse transform="matrix(0.8144 0.5803 -0.5803 0.8144 649.4338 -301.8403)" fill="#A3CE8E" cx="796.611" cy="864.397" rx="0.75" ry="1.408"/>
	</g>
</g>
<g>
	<g>
		<circle fill="#CEE3BD" cx="1182.856" cy="409.204" r="15.295"/>
		
			<ellipse transform="matrix(0.8145 0.5802 -0.5802 0.8145 453.107 -607.4639)" fill="#A3CE8E" cx="1176.407" cy="404.763" rx="2.713" ry="5.096"/>
	</g>
	<g>
		<circle fill="#CEE3BD" cx="1169.995" cy="483.241" r="6.412"/>
		<path fill="#A3CE8E" d="M1168.218,482.038c-0.684,0.96-1.654,1.445-2.164,1.081c-0.512-0.365-0.373-1.438,0.312-2.401
			c0.685-0.961,1.653-1.442,2.165-1.078C1169.042,480.001,1168.902,481.077,1168.218,482.038z"/>
	</g>
	<g>
		<circle fill="#CEE3BD" cx="1182.015" cy="510.938" r="4.146"/>
		
			<ellipse transform="matrix(0.8144 0.5803 -0.5803 0.8144 514.8475 -590.3011)" fill="#A3CE8E" cx="1180.267" cy="509.732" rx="0.736" ry="1.384"/>
	</g>
	<g>
		<circle fill="#CEE3BD" cx="1167.948" cy="536.176" r="3.255"/>
		<path fill="#A3CE8E" d="M1167.044,535.566c-0.346,0.487-0.838,0.732-1.1,0.547c-0.259-0.182-0.188-0.729,0.161-1.216
			c0.346-0.487,0.838-0.735,1.098-0.547C1167.464,534.531,1167.393,535.079,1167.044,535.566z"/>
	</g>
	<g>
		<circle fill="#CEE3BD" cx="1174.458" cy="548.369" r="3.255"/>
		<path fill="#A3CE8E" d="M1173.555,547.76c-0.346,0.487-0.838,0.732-1.1,0.547c-0.258-0.182-0.188-0.729,0.161-1.217
			c0.346-0.486,0.838-0.734,1.098-0.547C1173.975,546.726,1173.903,547.272,1173.555,547.76z"/>
	</g>
	<g>
		<circle fill="#CEE3BD" cx="1165.745" cy="560.596" r="3.255"/>
		
			<ellipse transform="matrix(0.8134 0.5817 -0.5817 0.8134 542.8416 -572.9001)" fill="#A3CE8E" cx="1164.372" cy="559.65" rx="0.577" ry="1.084"/>
	</g>
	<g>
		<circle fill="#CEE3BD" cx="1201.559" cy="451.807" r="8.501"/>
		
			<ellipse transform="matrix(0.8146 0.58 -0.58 0.8146 482.6779 -611.5095)" fill="#A3CE8E" cx="1197.974" cy="449.338" rx="1.509" ry="2.833"/>
	</g>
</g>
<g>
	<g>
		<circle fill="#CEE3BD" cx="1062.205" cy="124.312" r="13.675"/>
		
			<ellipse transform="matrix(0.8145 0.5802 -0.5802 0.8145 265.7935 -590.5914)" fill="#A3CE8E" cx="1056.438" cy="120.341" rx="2.426" ry="4.556"/>
	</g>
	<g>
		<circle fill="#CEE3BD" cx="1050.706" cy="190.507" r="5.732"/>
		
			<ellipse transform="matrix(0.8142 0.5805 -0.5805 0.8142 304.3626 -573.4869)" fill="#A3CE8E" cx="1048.289" cy="188.841" rx="1.016" ry="1.91"/>
	</g>
	<g>
		<circle fill="#CEE3BD" cx="1061.453" cy="215.271" r="3.708"/>
		
			<ellipse transform="matrix(0.8144 0.5804 -0.5804 0.8144 321.0679 -575.3555)" fill="#A3CE8E" cx="1059.89" cy="214.193" rx="0.658" ry="1.237"/>
	</g>
	<g>
		<circle fill="#CEE3BD" cx="1048.875" cy="237.835" r="2.911"/>
		
			<ellipse transform="matrix(0.814 0.5809 -0.5809 0.814 332.5366 -564.4745)" fill="#A3CE8E" cx="1047.648" cy="236.991" rx="0.515" ry="0.969"/>
	</g>
	<g>
		<circle fill="#CEE3BD" cx="1054.697" cy="248.738" r="2.911"/>
		
			<ellipse transform="matrix(0.8141 0.5807 -0.5807 0.8141 339.8185 -565.7103)" fill="#A3CE8E" cx="1053.469" cy="247.893" rx="0.516" ry="0.969"/>
	</g>
	<g>
		<circle fill="#CEE3BD" cx="1046.906" cy="259.669" r="2.911"/>
		
			<ellipse transform="matrix(0.8135 0.5816 -0.5816 0.8135 345.5279 -559.8471)" fill="#A3CE8E" cx="1045.678" cy="258.824" rx="0.517" ry="0.97"/>
	</g>
	<g>
		<circle fill="#CEE3BD" cx="1078.927" cy="162.402" r="7.602"/>
		
			<ellipse transform="matrix(0.8145 0.5801 -0.5801 0.8145 292.4497 -594.3409)" fill="#A3CE8E" cx="1075.722" cy="160.195" rx="1.349" ry="2.533"/>
	</g>
</g>
<g>
	<g>
		<circle fill="#CEE3BD" cx="253.338" cy="129.714" r="8.507"/>
		
			<ellipse transform="matrix(0.8144 0.5803 -0.5803 0.8144 120.1849 -121.3105)" fill="#A3CE8E" cx="249.752" cy="127.244" rx="1.509" ry="2.834"/>
	</g>
	<g>
		<circle fill="#CEE3BD" cx="246.186" cy="170.891" r="3.566"/>
		
			<ellipse transform="matrix(0.8143 0.5804 -0.5804 0.8143 144.0253 -110.4812)" fill="#A3CE8E" cx="244.682" cy="169.854" rx="0.633" ry="1.188"/>
	</g>
	<g>
		<circle fill="#CEE3BD" cx="252.871" cy="186.295" r="2.306"/>
		
			<ellipse transform="matrix(0.814 0.5808 -0.5808 0.814 154.6679 -111.7901)" fill="#A3CE8E" cx="251.898" cy="185.625" rx="0.409" ry="0.769"/>
	</g>
	<g>
		<circle fill="#CEE3BD" cx="245.047" cy="200.331" r="1.81"/>
		
			<ellipse transform="matrix(0.8139 0.581 -0.581 0.8139 161.5288 -104.7404)" fill="#A3CE8E" cx="244.283" cy="199.806" rx="0.321" ry="0.603"/>
	</g>
	<g>
		<circle fill="#CEE3BD" cx="248.668" cy="207.113" r="1.811"/>
		
			<ellipse transform="matrix(0.8139 0.581 -0.581 0.8139 166.1424 -105.5823)" fill="#A3CE8E" cx="247.905" cy="206.588" rx="0.321" ry="0.603"/>
	</g>
	<g>
		<circle fill="#CEE3BD" cx="243.822" cy="213.913" r="1.811"/>
		
			<ellipse transform="matrix(0.8134 0.5817 -0.5817 0.8134 169.4968 -101.5735)" fill="#A3CE8E" cx="243.058" cy="213.387" rx="0.321" ry="0.603"/>
	</g>
	<g>
		<circle fill="#CEE3BD" cx="263.74" cy="153.408" r="4.728"/>
		
			<ellipse transform="matrix(0.8146 0.58 -0.58 0.8146 136.713 -123.6323)" fill="#A3CE8E" cx="261.747" cy="152.035" rx="0.839" ry="1.576"/>
	</g>
</g>
<g>
	<g>
		<circle fill="#CEE3BD" cx="164.654" cy="830.551" r="10.976"/>
		
			<ellipse transform="matrix(0.8145 0.5802 -0.5802 0.8145 509.7196 60.6475)" fill="#A3CE8E" cx="160.026" cy="827.364" rx="1.947" ry="3.657"/>
	</g>
	<g>
		<circle fill="#CEE3BD" cx="155.425" cy="883.677" r="4.601"/>
		
			<ellipse transform="matrix(0.8143 0.5804 -0.5804 0.8143 540.5964 74.7345)" fill="#A3CE8E" cx="153.485" cy="882.34" rx="0.816" ry="1.533"/>
	</g>
	<g>
		<circle fill="#CEE3BD" cx="164.05" cy="903.552" r="2.976"/>
		
			<ellipse transform="matrix(0.8143 0.5805 -0.5805 0.8143 554.1973 73.1382)" fill="#A3CE8E" cx="162.796" cy="902.687" rx="0.528" ry="0.993"/>
	</g>
	<g>
		<circle fill="#CEE3BD" cx="153.957" cy="921.661" r="2.336"/>
		
			<ellipse transform="matrix(0.8142 0.5806 -0.5806 0.8142 563.114 82.2978)" fill="#A3CE8E" cx="152.971" cy="920.983" rx="0.414" ry="0.778"/>
	</g>
	<g>
		<circle fill="#CEE3BD" cx="158.628" cy="930.411" r="2.336"/>
		
			<ellipse transform="matrix(0.8142 0.5806 -0.5806 0.8142 569.062 81.2111)" fill="#A3CE8E" cx="157.643" cy="929.733" rx="0.414" ry="0.778"/>
	</g>
	<g>
		<circle fill="#CEE3BD" cx="152.375" cy="939.185" r="2.336"/>
		
			<ellipse transform="matrix(0.8135 0.5816 -0.5816 0.8135 574.0441 86.9917)" fill="#A3CE8E" cx="151.391" cy="938.506" rx="0.415" ry="0.778"/>
	</g>
	<g>
		<circle fill="#CEE3BD" cx="178.075" cy="861.121" r="6.101"/>
		
			<ellipse transform="matrix(0.8146 0.58 -0.58 0.8146 531.0002 57.5366)" fill="#A3CE8E" cx="175.502" cy="859.35" rx="1.083" ry="2.033"/>
	</g>
</g>
<g>
	<g>
		<circle fill="#CEE3BD" cx="1092.745" cy="730.946" r="10.976"/>
		
			<ellipse transform="matrix(0.8145 0.5802 -0.5802 0.8145 624.1105 -496.3041)" fill="#A3CE8E" cx="1088.118" cy="727.759" rx="1.947" ry="3.657"/>
	</g>
	<g>
		<circle fill="#CEE3BD" cx="1083.517" cy="784.072" r="4.601"/>
		
			<ellipse transform="matrix(0.8143 0.5804 -0.5804 0.8143 655.0969 -482.412)" fill="#A3CE8E" cx="1081.577" cy="782.735" rx="0.816" ry="1.533"/>
	</g>
	<g>
		<circle fill="#CEE3BD" cx="1092.142" cy="803.947" r="2.976"/>
		
			<ellipse transform="matrix(0.8143 0.5805 -0.5805 0.8143 668.7328 -484.0703)" fill="#A3CE8E" cx="1090.887" cy="803.082" rx="0.528" ry="0.993"/>
	</g>
	<g>
		<circle fill="#CEE3BD" cx="1082.048" cy="822.057" r="2.336"/>
		
			<ellipse transform="matrix(0.8142 0.5806 -0.5806 0.8142 677.7154 -475.0278)" fill="#A3CE8E" cx="1081.063" cy="821.379" rx="0.414" ry="0.778"/>
	</g>
	<g>
		<circle fill="#CEE3BD" cx="1086.72" cy="830.807" r="2.336"/>
		
			<ellipse transform="matrix(0.8142 0.5806 -0.5806 0.8142 683.6633 -476.1145)" fill="#A3CE8E" cx="1085.734" cy="830.129" rx="0.414" ry="0.778"/>
	</g>
	<g>
		<circle fill="#CEE3BD" cx="1080.467" cy="839.58" r="2.336"/>
		
			<ellipse transform="matrix(0.8135 0.5816 -0.5816 0.8135 689.2108 -471.3372)" fill="#A3CE8E" cx="1079.482" cy="838.901" rx="0.415" ry="0.778"/>
	</g>
	<g>
		<circle fill="#CEE3BD" cx="1106.166" cy="761.517" r="6.101"/>
		
			<ellipse transform="matrix(0.8146 0.58 -0.58 0.8146 645.3066 -499.2643)" fill="#A3CE8E" cx="1103.594" cy="759.745" rx="1.083" ry="2.033"/>
	</g>
</g>
<g>
	<g>
		<circle fill="#CEE3BD" cx="1434.189" cy="259.068" r="8.953"/>
		
			<ellipse transform="matrix(0.8145 0.5802 -0.5802 0.8145 414.17 -782.3334)" fill="#A3CE8E" cx="1430.415" cy="256.468" rx="1.588" ry="2.983"/>
	</g>
	<g>
		<circle fill="#CEE3BD" cx="1426.662" cy="302.401" r="3.752"/>
		
			<ellipse transform="matrix(0.8144 0.5803 -0.5803 0.8144 439.3884 -771.094)" fill="#A3CE8E" cx="1425.079" cy="301.311" rx="0.666" ry="1.25"/>
	</g>
	<g>
		<circle fill="#CEE3BD" cx="1433.697" cy="318.613" r="2.427"/>
		
			<ellipse transform="matrix(0.8146 0.5801 -0.5801 0.8146 450.0588 -772.0865)" fill="#A3CE8E" cx="1432.673" cy="317.907" rx="0.431" ry="0.81"/>
	</g>
	<g>
		<circle fill="#CEE3BD" cx="1425.464" cy="333.384" r="1.905"/>
		
			<ellipse transform="matrix(0.8145 0.5801 -0.5801 0.8145 457.3431 -764.7708)" fill="#A3CE8E" cx="1424.66" cy="332.832" rx="0.338" ry="0.634"/>
	</g>
	<g>
		<circle fill="#CEE3BD" cx="1429.274" cy="340.521" r="1.905"/>
		
			<ellipse transform="matrix(0.8145 0.5801 -0.5801 0.8145 462.1907 -765.6576)" fill="#A3CE8E" cx="1428.47" cy="339.969" rx="0.338" ry="0.634"/>
	</g>
	<g>
		<circle fill="#CEE3BD" cx="1424.174" cy="347.678" r="1.905"/>
		
			<ellipse transform="matrix(0.8131 0.5821 -0.5821 0.8131 468.0068 -763.6227)" fill="#A3CE8E" cx="1423.371" cy="347.125" rx="0.338" ry="0.635"/>
	</g>
	<g>
		<circle fill="#CEE3BD" cx="1445.136" cy="284.003" r="4.976"/>
		
			<ellipse transform="matrix(0.8147 0.5798 -0.5798 0.8147 431.1707 -784.3639)" fill="#A3CE8E" cx="1443.038" cy="282.558" rx="0.883" ry="1.659"/>
	</g>
</g>
<g>
	<g>
		<circle fill="#CEE3BD" cx="1693.077" cy="855.057" r="10.976"/>
		
			<ellipse transform="matrix(0.8145 0.5802 -0.5802 0.8145 807.493 -821.5878)" fill="#A3CE8E" cx="1688.45" cy="851.87" rx="1.947" ry="3.657"/>
	</g>
	<g>
		<circle fill="#CEE3BD" cx="1683.849" cy="908.183" r="4.601"/>
		
			<ellipse transform="matrix(0.8143 0.5804 -0.5804 0.8143 838.5872 -807.7955)" fill="#A3CE8E" cx="1681.909" cy="906.846" rx="0.816" ry="1.533"/>
	</g>
	<g>
		<circle fill="#CEE3BD" cx="1692.474" cy="928.058" r="2.976"/>
		
			<ellipse transform="matrix(0.8143 0.5805 -0.5805 0.8143 852.2574 -809.4858)" fill="#A3CE8E" cx="1691.219" cy="927.192" rx="0.528" ry="0.993"/>
	</g>
	<g>
		<circle fill="#CEE3BD" cx="1682.38" cy="946.167" r="2.336"/>
		
			<ellipse transform="matrix(0.8142 0.5806 -0.5806 0.8142 861.3046 -800.5034)" fill="#A3CE8E" cx="1681.395" cy="945.489" rx="0.414" ry="0.778"/>
	</g>
	<g>
		<circle fill="#CEE3BD" cx="1687.052" cy="954.917" r="2.336"/>
		
			<ellipse transform="matrix(0.8142 0.5806 -0.5806 0.8142 867.2526 -801.5901)" fill="#A3CE8E" cx="1686.066" cy="954.239" rx="0.414" ry="0.778"/>
	</g>
	<g>
		<circle fill="#CEE3BD" cx="1680.799" cy="963.69" r="2.336"/>
		
			<ellipse transform="matrix(0.8135 0.5816 -0.5816 0.8135 873.355 -797.3264)" fill="#A3CE8E" cx="1679.814" cy="963.012" rx="0.415" ry="0.778"/>
	</g>
	<g>
		<circle fill="#CEE3BD" cx="1706.498" cy="885.627" r="6.101"/>
		
			<ellipse transform="matrix(0.8146 0.58 -0.58 0.8146 828.606 -824.4707)" fill="#A3CE8E" cx="1703.926" cy="883.855" rx="1.083" ry="2.033"/>
	</g>
</g>
<g>
	<g>
		<circle fill="#CEE3BD" cx="1687.098" cy="209.757" r="13.169"/>
		
			<ellipse transform="matrix(0.8145 0.5802 -0.5802 0.8145 431.4796 -937.4562)" fill="#A3CE8E" cx="1681.545" cy="205.933" rx="2.336" ry="4.387"/>
	</g>
	<g>
		<circle fill="#CEE3BD" cx="1676.025" cy="273.5" r="5.52"/>
		
			<ellipse transform="matrix(0.8143 0.5804 -0.5804 0.8143 468.6135 -920.9845)" fill="#A3CE8E" cx="1673.697" cy="271.896" rx="0.979" ry="1.839"/>
	</g>
	<g>
		<circle fill="#CEE3BD" cx="1686.373" cy="297.346" r="3.57"/>
		
			<ellipse transform="matrix(0.8145 0.5801 -0.5801 0.8145 484.3684 -922.4532)" fill="#A3CE8E" cx="1684.868" cy="296.308" rx="0.634" ry="1.191"/>
	</g>
	<g>
		<circle fill="#CEE3BD" cx="1674.262" cy="319.075" r="2.803"/>
		
			<ellipse transform="matrix(0.8142 0.5806 -0.5806 0.8142 495.7098 -912.3021)" fill="#A3CE8E" cx="1673.08" cy="318.261" rx="0.497" ry="0.934"/>
	</g>
	<g>
		<circle fill="#CEE3BD" cx="1679.868" cy="329.573" r="2.803"/>
		
			<ellipse transform="matrix(0.8142 0.5806 -0.5806 0.8142 502.8474 -913.6058)" fill="#A3CE8E" cx="1678.686" cy="328.76" rx="0.497" ry="0.934"/>
	</g>
	<g>
		<circle fill="#CEE3BD" cx="1672.365" cy="340.1" r="2.803"/>
		
			<ellipse transform="matrix(0.8133 0.5818 -0.5818 0.8133 509.3451 -908.9531)" fill="#A3CE8E" cx="1671.183" cy="339.286" rx="0.498" ry="0.934"/>
	</g>
	<g>
		<circle fill="#CEE3BD" cx="1703.2" cy="246.437" r="7.319"/>
		
			<ellipse transform="matrix(0.8146 0.58 -0.58 0.8146 456.915 -940.8182)" fill="#A3CE8E" cx="1700.114" cy="244.311" rx="1.299" ry="2.439"/>
	</g>
</g>
<g>
	<g>
		<circle fill="#CEE3BD" cx="1482.96" cy="604.126" r="3.764"/>
		
			<ellipse transform="matrix(0.8144 0.5803 -0.5803 0.8144 624.8268 -747.687)" fill="#A3CE8E" cx="1481.374" cy="603.033" rx="0.667" ry="1.254"/>
	</g>
	<g>
		<circle fill="#CEE3BD" cx="1479.795" cy="622.347" r="1.578"/>
		
			<ellipse transform="matrix(0.815 0.5794 -0.5794 0.815 633.932 -742.0072)" fill="#A3CE8E" cx="1479.13" cy="621.889" rx="0.28" ry="0.526"/>
	</g>
	<g>
		<circle fill="#CEE3BD" cx="1482.754" cy="629.164" r="1.021"/>
		
			<ellipse transform="matrix(0.8134 0.5817 -0.5817 0.8134 642.489 -744.972)" fill="#A3CE8E" cx="1482.323" cy="628.867" rx="0.181" ry="0.34"/>
	</g>
	<g>
		<circle fill="#CEE3BD" cx="1479.292" cy="635.375" r="0.801"/>
		
			<ellipse transform="matrix(0.8158 0.5783 -0.5783 0.8158 639.6969 -738.3049)" fill="#A3CE8E" cx="1478.954" cy="635.143" rx="0.142" ry="0.266"/>
	</g>
	<g>
		<circle fill="#CEE3BD" cx="1480.894" cy="638.376" r="0.801"/>
		
			<ellipse transform="matrix(0.8142 0.5806 -0.5806 0.8142 645.5898 -741.0244)" fill="#A3CE8E" cx="1480.556" cy="638.144" rx="0.142" ry="0.267"/>
	</g>
	<g>
		<circle fill="#CEE3BD" cx="1478.75" cy="641.386" r="0.801"/>
		
			<ellipse transform="matrix(0.8142 0.5806 -0.5806 0.8142 646.9383 -739.2202)" fill="#A3CE8E" cx="1478.412" cy="641.153" rx="0.142" ry="0.267"/>
	</g>
	<g>
		<circle fill="#CEE3BD" cx="1487.564" cy="614.611" r="2.092"/>
		
			<ellipse transform="matrix(0.8149 0.5796 -0.5796 0.8149 631.0942 -748.0511)" fill="#A3CE8E" cx="1486.682" cy="614.003" rx="0.372" ry="0.697"/>
	</g>
</g>
</svg>
