<?xml version="1.0" encoding="utf-8"?>
<!-- Generator: Adobe Illustrator 16.0.0, SVG Export Plug-In . SVG Version: 6.00 Build 0)  -->
<!DOCTYPE svg PUBLIC "-//W3C//DTD SVG 1.1//EN" "http://www.w3.org/Graphics/SVG/1.1/DTD/svg11.dtd">
<svg version="1.1" id="Calque_1" xmlns="http://www.w3.org/2000/svg" xmlns:xlink="http://www.w3.org/1999/xlink" x="0px" y="0px"
	 width="1920px" height="1080px" viewBox="0 0 1920 1080" enable-background="new 0 0 1920 1080" xml:space="preserve">
<rect x="0" fill="#A3CE8E" stroke="#6EB860" stroke-width="0.5" stroke-miterlimit="10" width="1920" height="1080"/>
<g>
	<g>
		<circle fill="#CEE3BD" cx="380.643" cy="509.251" r="10.976"/>
		
			<ellipse transform="matrix(0.58 -0.8146 0.8146 0.58 -254.2988 518.8433)" fill="#A3CE8E" cx="376.025" cy="506.041" rx="3.657" ry="1.947"/>
	</g>
	<g>
		<circle fill="#CEE3BD" cx="371.414" cy="562.377" r="4.601"/>
		
			<ellipse transform="matrix(0.5805 -0.8143 0.8143 0.5805 -301.8018 536.2354)" fill="#A3CE8E" cx="369.487" cy="561" rx="1.533" ry="0.816"/>
	</g>
	<g>
		<circle fill="#CEE3BD" cx="380.039" cy="582.252" r="2.976"/>
		
			<ellipse transform="matrix(0.5808 -0.8141 0.8141 0.5808 -314.495 552.058)" fill="#A3CE8E" cx="378.752" cy="581.376" rx="0.992" ry="0.528"/>
	</g>
	<g>
		<circle fill="#CEE3BD" cx="369.945" cy="600.361" r="2.336"/>
		
			<ellipse transform="matrix(0.5798 -0.8148 0.8148 0.5798 -333.5512 552.5891)" fill="#A3CE8E" cx="368.963" cy="599.674" rx="0.777" ry="0.414"/>
	</g>
	<g>
		<circle fill="#CEE3BD" cx="374.616" cy="609.111" r="2.336"/>
		
			<ellipse transform="matrix(0.5798 -0.8148 0.8148 0.5798 -338.7172 560.0721)" fill="#A3CE8E" cx="373.635" cy="608.424" rx="0.777" ry="0.414"/>
	</g>
	<g>
		<circle fill="#CEE3BD" cx="368.365" cy="617.885" r="2.336"/>
		
			<ellipse transform="matrix(0.5814 -0.8136 0.8136 0.5814 -348.4054 557.3004)" fill="#A3CE8E" cx="367.365" cy="617.22" rx="0.778" ry="0.415"/>
	</g>
	<g>
		<circle fill="#CEE3BD" cx="394.064" cy="539.822" r="6.101"/>
		
			<ellipse transform="matrix(0.58 -0.8146 0.8146 0.58 -273.8482 544.9146)" fill="#A3CE8E" cx="391.514" cy="538.025" rx="2.033" ry="1.082"/>
	</g>
</g>
<g>
	<g>
		<circle fill="#CEE3BD" cx="734.559" cy="486.54" r="16.346"/>
		
			<ellipse transform="matrix(0.8145 -0.5802 0.5802 0.8145 -141.9905 519.5895)" fill="#A3CE8E" cx="741.464" cy="481.819" rx="2.899" ry="5.447"/>
	</g>
	<g>
		<circle fill="#CEE3BD" cx="748.303" cy="565.659" r="6.852"/>
		
			<ellipse transform="matrix(0.8144 -0.5803 0.5803 0.8144 -187.6672 540.5382)" fill="#A3CE8E" cx="751.228" cy="563.663" rx="1.216" ry="2.283"/>
	</g>
	<g>
		<circle fill="#CEE3BD" cx="735.458" cy="595.259" r="4.432"/>
		
			<ellipse transform="matrix(0.8139 -0.5809 0.5809 0.8139 -207.8905 538.8767)" fill="#A3CE8E" cx="737.35" cy="593.998" rx="0.786" ry="1.478"/>
	</g>
	<g>
		<circle fill="#CEE3BD" cx="750.491" cy="622.229" r="3.479"/>
		<path fill="#A3CE8E" d="M751.287,620.278c0.277-0.201,0.804,0.063,1.175,0.584c0.37,0.52,0.446,1.104,0.17,1.3
			c-0.278,0.198-0.805-0.063-1.175-0.584C751.086,621.057,751.009,620.473,751.287,620.278z"/>
	</g>
	<g>
		<circle fill="#CEE3BD" cx="743.534" cy="635.261" r="3.479"/>
		<path fill="#A3CE8E" d="M744.329,633.309c0.277-0.2,0.804,0.063,1.175,0.585c0.372,0.52,0.446,1.104,0.17,1.3
			c-0.278,0.197-0.805-0.063-1.176-0.584C744.128,634.088,744.052,633.504,744.329,633.309z"/>
	</g>
	<g>
		<circle fill="#CEE3BD" cx="752.845" cy="648.327" r="3.479"/>
		
			<ellipse transform="matrix(0.8136 -0.5814 0.5814 0.8136 -235.7393 559.2043)" fill="#A3CE8E" cx="754.344" cy="647.294" rx="0.618" ry="1.159"/>
	</g>
	<g>
		<circle fill="#CEE3BD" cx="714.571" cy="532.068" r="9.086"/>
		
			<ellipse transform="matrix(0.8145 -0.5802 0.5802 0.8145 -173.9026 515.027)" fill="#A3CE8E" cx="718.391" cy="529.443" rx="1.612" ry="3.028"/>
	</g>
</g>
<g>
	<g>
		<circle fill="#CEE3BD" cx="574.87" cy="797.759" r="1.288"/>
		
			<ellipse transform="matrix(0.8149 -0.5796 0.5796 0.8149 -355.6644 481.1265)" fill="#A3CE8E" cx="575.414" cy="797.387" rx="0.228" ry="0.429"/>
	</g>
	<g>
		<circle fill="#CEE3BD" cx="575.952" cy="803.991" r="0.54"/>
		
			<ellipse transform="matrix(0.8144 -0.5803 0.5803 0.8144 -359.517 483.5193)" fill="#A3CE8E" cx="576.183" cy="803.834" rx="0.096" ry="0.18"/>
	</g>
	<g>
		<circle fill="#CEE3BD" cx="574.941" cy="806.322" r="0.349"/>
		
			<ellipse transform="matrix(0.8159 -0.5782 0.5782 0.8159 -360.2961 480.989)" fill="#A3CE8E" cx="575.09" cy="806.223" rx="0.062" ry="0.116"/>
	</g>
	<g>
		<circle fill="#CEE3BD" cx="576.125" cy="808.446" r="0.274"/>
		<path fill="#A3CE8E" d="M576.187,808.293c0.022-0.016,0.063,0.005,0.093,0.046s0.035,0.087,0.013,0.103
			c-0.021,0.016-0.063-0.005-0.092-0.046S576.166,808.309,576.187,808.293z"/>
	</g>
	<g>
		<circle fill="#CEE3BD" cx="575.577" cy="809.474" r="0.274"/>
		<path fill="#A3CE8E" d="M575.639,809.319c0.022-0.016,0.063,0.005,0.093,0.046s0.035,0.087,0.013,0.103s-0.063-0.005-0.093-0.046
			C575.624,809.381,575.617,809.335,575.639,809.319z"/>
	</g>
	<g>
		<circle fill="#CEE3BD" cx="576.31" cy="810.502" r="0.274"/>
		
			<ellipse transform="matrix(0.8147 -0.5798 0.5798 0.8147 -363.1113 484.3581)" fill="#A3CE8E" cx="576.428" cy="810.421" rx="0.049" ry="0.091"/>
	</g>
	<g>
		<circle fill="#CEE3BD" cx="573.295" cy="801.345" r="0.716"/>
		
			<ellipse transform="matrix(0.8145 -0.5801 0.5801 0.8145 -358.3827 481.3723)" fill="#A3CE8E" cx="573.596" cy="801.138" rx="0.127" ry="0.239"/>
	</g>
</g>
<g>
	<g>
		<circle fill="#CEE3BD" cx="357.041" cy="915.796" r="1.288"/>
		
			<ellipse transform="matrix(0.8149 -0.5796 0.5796 0.8149 -464.4036 376.7188)" fill="#A3CE8E" cx="357.585" cy="915.424" rx="0.228" ry="0.429"/>
	</g>
	<g>
		<circle fill="#CEE3BD" cx="358.123" cy="922.028" r="0.54"/>
		
			<ellipse transform="matrix(0.8144 -0.5803 0.5803 0.8144 -468.4355 379.0238)" fill="#A3CE8E" cx="358.354" cy="921.871" rx="0.096" ry="0.18"/>
	</g>
	<g>
		<circle fill="#CEE3BD" cx="357.112" cy="924.359" r="0.349"/>
		
			<ellipse transform="matrix(0.8159 -0.5782 0.5782 0.8159 -468.6587 376.7664)" fill="#A3CE8E" cx="357.26" cy="924.26" rx="0.062" ry="0.116"/>
	</g>
	<g>
		<circle fill="#CEE3BD" cx="358.296" cy="926.483" r="0.274"/>
		<path fill="#A3CE8E" d="M358.358,926.33c0.022-0.016,0.063,0.005,0.093,0.046s0.035,0.087,0.013,0.103
			c-0.021,0.016-0.063-0.005-0.092-0.046S358.337,926.346,358.358,926.33z"/>
	</g>
	<g>
		<circle fill="#CEE3BD" cx="357.748" cy="927.511" r="0.274"/>
		<path fill="#A3CE8E" d="M357.81,927.356c0.022-0.016,0.063,0.005,0.093,0.046s0.035,0.087,0.013,0.103s-0.063-0.005-0.093-0.046
			C357.795,927.418,357.788,927.372,357.81,927.356z"/>
	</g>
	<g>
		<circle fill="#CEE3BD" cx="358.481" cy="928.539" r="0.274"/>
		
			<ellipse transform="matrix(0.8147 -0.5798 0.5798 0.8147 -471.9053 379.9236)" fill="#A3CE8E" cx="358.599" cy="928.458" rx="0.049" ry="0.091"/>
	</g>
	<g>
		<circle fill="#CEE3BD" cx="355.466" cy="919.382" r="0.716"/>
		
			<ellipse transform="matrix(0.8145 -0.5801 0.5801 0.8145 -467.2664 376.8939)" fill="#A3CE8E" cx="355.767" cy="919.175" rx="0.127" ry="0.239"/>
	</g>
</g>
<g>
	<g>
		<circle fill="#CEE3BD" cx="218.599" cy="648.369" r="1.288"/>
		
			<ellipse transform="matrix(0.8149 -0.5796 0.5796 0.8149 -335.0254 246.9714)" fill="#A3CE8E" cx="219.143" cy="647.998" rx="0.228" ry="0.429"/>
	</g>
	<g>
		<circle fill="#CEE3BD" cx="219.681" cy="654.602" r="0.54"/>
		
			<ellipse transform="matrix(0.8144 -0.5803 0.5803 0.8144 -338.9465 249.0606)" fill="#A3CE8E" cx="219.912" cy="654.444" rx="0.096" ry="0.18"/>
	</g>
	<g>
		<circle fill="#CEE3BD" cx="218.67" cy="656.933" r="0.349"/>
		
			<ellipse transform="matrix(0.8159 -0.5782 0.5782 0.8159 -339.5142 247.4726)" fill="#A3CE8E" cx="218.819" cy="656.833" rx="0.062" ry="0.116"/>
	</g>
	<g>
		<circle fill="#CEE3BD" cx="219.854" cy="659.057" r="0.274"/>
		<path fill="#A3CE8E" d="M219.916,658.903c0.022-0.016,0.063,0.005,0.093,0.046s0.035,0.087,0.013,0.103
			c-0.021,0.016-0.063-0.005-0.092-0.046S219.895,658.919,219.916,658.903z"/>
	</g>
	<g>
		<circle fill="#CEE3BD" cx="219.306" cy="660.084" r="0.274"/>
		<path fill="#A3CE8E" d="M219.368,659.93c0.022-0.016,0.063,0.005,0.093,0.046s0.035,0.087,0.013,0.103s-0.063-0.005-0.093-0.046
			C219.353,659.991,219.346,659.945,219.368,659.93z"/>
	</g>
	<g>
		<circle fill="#CEE3BD" cx="220.039" cy="661.112" r="0.274"/>
		
			<ellipse transform="matrix(0.8147 -0.5798 0.5798 0.8147 -342.4933 250.1104)" fill="#A3CE8E" cx="220.157" cy="661.031" rx="0.049" ry="0.091"/>
	</g>
	<g>
		<circle fill="#CEE3BD" cx="217.024" cy="651.955" r="0.716"/>
		
			<ellipse transform="matrix(0.8145 -0.5801 0.5801 0.8145 -337.7988 246.9726)" fill="#A3CE8E" cx="217.325" cy="651.749" rx="0.127" ry="0.239"/>
	</g>
</g>
<g>
	<g>
		<circle fill="#CEE3BD" cx="547.265" cy="471.085" r="1.288"/>
		
			<ellipse transform="matrix(0.8149 -0.5796 0.5796 0.8149 -171.4281 404.6552)" fill="#A3CE8E" cx="547.809" cy="470.713" rx="0.228" ry="0.429"/>
	</g>
	<g>
		<circle fill="#CEE3BD" cx="548.348" cy="477.317" r="0.54"/>
		
			<ellipse transform="matrix(0.8144 -0.5803 0.5803 0.8144 -175.0793 406.8772)" fill="#A3CE8E" cx="548.578" cy="477.16" rx="0.096" ry="0.18"/>
	</g>
	<g>
		<circle fill="#CEE3BD" cx="547.336" cy="479.648" r="0.349"/>
		
			<ellipse transform="matrix(0.8159 -0.5782 0.5782 0.8159 -176.4841 404.8762)" fill="#A3CE8E" cx="547.485" cy="479.549" rx="0.062" ry="0.116"/>
	</g>
	<g>
		<circle fill="#CEE3BD" cx="548.52" cy="481.772" r="0.274"/>
		<path fill="#A3CE8E" d="M548.583,481.619c0.022-0.016,0.063,0.005,0.093,0.046s0.035,0.087,0.013,0.103
			c-0.021,0.016-0.063-0.005-0.092-0.046S548.561,481.635,548.583,481.619z"/>
	</g>
	<g>
		<circle fill="#CEE3BD" cx="547.972" cy="482.8" r="0.274"/>
		<path fill="#A3CE8E" d="M548.035,482.646c0.022-0.016,0.063,0.005,0.093,0.046s0.035,0.087,0.013,0.103s-0.063-0.005-0.093-0.046
			C548.019,482.707,548.013,482.661,548.035,482.646z"/>
	</g>
	<g>
		<circle fill="#CEE3BD" cx="548.706" cy="483.828" r="0.274"/>
		
			<ellipse transform="matrix(0.8147 -0.5798 0.5798 0.8147 -178.8135 407.8347)" fill="#A3CE8E" cx="548.824" cy="483.747" rx="0.049" ry="0.091"/>
	</g>
	<g>
		<circle fill="#CEE3BD" cx="545.691" cy="474.671" r="0.716"/>
		
			<ellipse transform="matrix(0.8145 -0.5801 0.5801 0.8145 -173.984 404.7635)" fill="#A3CE8E" cx="545.992" cy="474.464" rx="0.127" ry="0.239"/>
	</g>
</g>
<g>
	<g>
		<circle fill="#CEE3BD" cx="119.014" cy="287.464" r="1.288"/>
		
			<ellipse transform="matrix(0.8149 -0.5796 0.5796 0.8149 -144.2723 122.4425)" fill="#A3CE8E" cx="119.558" cy="287.092" rx="0.228" ry="0.429"/>
	</g>
	<g>
		<circle fill="#CEE3BD" cx="120.097" cy="293.696" r="0.54"/>
		
			<ellipse transform="matrix(0.8144 -0.5803 0.5803 0.8144 -148.0031 124.2977)" fill="#A3CE8E" cx="120.327" cy="293.539" rx="0.096" ry="0.18"/>
	</g>
	<g>
		<circle fill="#CEE3BD" cx="119.085" cy="296.027" r="0.349"/>
		
			<ellipse transform="matrix(0.8159 -0.5782 0.5782 0.8159 -149.1619 123.4352)" fill="#A3CE8E" cx="119.234" cy="295.928" rx="0.062" ry="0.116"/>
	</g>
	<g>
		<circle fill="#CEE3BD" cx="120.269" cy="298.151" r="0.274"/>
		<path fill="#A3CE8E" d="M120.332,297.998c0.022-0.016,0.063,0.005,0.093,0.046s0.035,0.087,0.013,0.103
			c-0.021,0.016-0.063-0.005-0.092-0.046S120.31,298.014,120.332,297.998z"/>
	</g>
	<g>
		<circle fill="#CEE3BD" cx="119.721" cy="299.179" r="0.274"/>
		<path fill="#A3CE8E" d="M119.784,299.024c0.022-0.016,0.063,0.005,0.093,0.046s0.035,0.087,0.013,0.103s-0.063-0.005-0.093-0.046
			C119.768,299.086,119.762,299.04,119.784,299.024z"/>
	</g>
	<g>
		<circle fill="#CEE3BD" cx="120.455" cy="300.207" r="0.274"/>
		
			<ellipse transform="matrix(0.8147 -0.5798 0.5798 0.8147 -151.682 125.5101)" fill="#A3CE8E" cx="120.573" cy="300.126" rx="0.049" ry="0.091"/>
	</g>
	<g>
		<circle fill="#CEE3BD" cx="117.44" cy="291.05" r="0.716"/>
		
			<ellipse transform="matrix(0.8145 -0.5801 0.5801 0.8145 -146.8924 122.2552)" fill="#A3CE8E" cx="117.741" cy="290.843" rx="0.127" ry="0.239"/>
	</g>
</g>
<g>
	<g>
		<circle fill="#CEE3BD" cx="777.264" cy="600.91" r="1.288"/>
		
			<ellipse transform="matrix(0.8149 -0.5796 0.5796 0.8149 -204.1016 561.999)" fill="#A3CE8E" cx="777.808" cy="600.539" rx="0.228" ry="0.429"/>
	</g>
	<g>
		<circle fill="#CEE3BD" cx="778.347" cy="607.143" r="0.54"/>
		
			<ellipse transform="matrix(0.8144 -0.5803 0.5803 0.8144 -207.7305 564.4327)" fill="#A3CE8E" cx="778.577" cy="606.985" rx="0.096" ry="0.18"/>
	</g>
	<g>
		<circle fill="#CEE3BD" cx="777.335" cy="609.474" r="0.349"/>
		
			<ellipse transform="matrix(0.8159 -0.5782 0.5782 0.8159 -209.2038 561.775)" fill="#A3CE8E" cx="777.484" cy="609.375" rx="0.062" ry="0.116"/>
	</g>
	<g>
		<circle fill="#CEE3BD" cx="778.519" cy="611.598" r="0.274"/>
		<path fill="#A3CE8E" d="M778.582,611.444c0.022-0.016,0.063,0.005,0.093,0.046s0.035,0.087,0.013,0.103
			c-0.021,0.016-0.063-0.005-0.092-0.046S778.56,611.46,778.582,611.444z"/>
	</g>
	<g>
		<circle fill="#CEE3BD" cx="777.971" cy="612.625" r="0.274"/>
		<path fill="#A3CE8E" d="M778.034,612.471c0.022-0.016,0.063,0.005,0.093,0.046s0.035,0.087,0.013,0.103s-0.063-0.005-0.093-0.046
			C778.018,612.532,778.012,612.486,778.034,612.471z"/>
	</g>
	<g>
		<circle fill="#CEE3BD" cx="778.705" cy="613.653" r="0.274"/>
		
			<ellipse transform="matrix(0.8147 -0.5798 0.5798 0.8147 -211.4803 565.2432)" fill="#A3CE8E" cx="778.823" cy="613.572" rx="0.049" ry="0.091"/>
	</g>
	<g>
		<circle fill="#CEE3BD" cx="775.69" cy="604.496" r="0.716"/>
		
			<ellipse transform="matrix(0.8145 -0.5801 0.5801 0.8145 -206.6396 562.2778)" fill="#A3CE8E" cx="775.991" cy="604.29" rx="0.127" ry="0.239"/>
	</g>
</g>
<g>
	<g>
		<circle fill="#CEE3BD" cx="927.408" cy="416.02" r="1.288"/>
		
			<ellipse transform="matrix(0.8149 -0.5796 0.5796 0.8149 -69.1422 614.7996)" fill="#A3CE8E" cx="927.952" cy="415.648" rx="0.228" ry="0.429"/>
	</g>
	<g>
		<circle fill="#CEE3BD" cx="928.49" cy="422.252" r="0.54"/>
		
			<ellipse transform="matrix(0.8144 -0.5803 0.5803 0.8144 -72.5796 617.2454)" fill="#A3CE8E" cx="928.721" cy="422.095" rx="0.096" ry="0.18"/>
	</g>
	<g>
		<circle fill="#CEE3BD" cx="927.479" cy="424.583" r="0.349"/>
		
			<ellipse transform="matrix(0.8159 -0.5782 0.5782 0.8159 -74.6472 614.5494)" fill="#A3CE8E" cx="927.628" cy="424.484" rx="0.062" ry="0.116"/>
	</g>
	<g>
		<circle fill="#CEE3BD" cx="928.663" cy="426.707" r="0.274"/>
		<path fill="#A3CE8E" d="M928.725,426.554c0.022-0.016,0.063,0.005,0.093,0.046s0.035,0.087,0.013,0.103
			c-0.021,0.016-0.063-0.005-0.092-0.046S928.704,426.569,928.725,426.554z"/>
	</g>
	<g>
		<circle fill="#CEE3BD" cx="928.115" cy="427.734" r="0.274"/>
		<path fill="#A3CE8E" d="M928.177,427.58c0.022-0.016,0.063,0.005,0.093,0.046s0.035,0.087,0.013,0.103s-0.063-0.005-0.093-0.046
			C928.162,427.642,928.156,427.596,928.177,427.58z"/>
	</g>
	<g>
		<circle fill="#CEE3BD" cx="928.848" cy="428.763" r="0.274"/>
		
			<ellipse transform="matrix(0.8147 -0.5798 0.5798 0.8147 -76.4624 618.0474)" fill="#A3CE8E" cx="928.966" cy="428.682" rx="0.049" ry="0.091"/>
	</g>
	<g>
		<circle fill="#CEE3BD" cx="925.833" cy="419.605" r="0.716"/>
		
			<ellipse transform="matrix(0.8145 -0.5801 0.5801 0.8145 -71.5259 615.0881)" fill="#A3CE8E" cx="926.135" cy="419.399" rx="0.127" ry="0.239"/>
	</g>
</g>
<g>
	<g>
		<circle fill="#CEE3BD" cx="1263.682" cy="171.291" r="1.287"/>
		
			<ellipse transform="matrix(0.8156 -0.5786 0.5786 0.8156 134.2217 763.0099)" fill="#A3CE8E" cx="1264.226" cy="170.919" rx="0.229" ry="0.429"/>
	</g>
	<g>
		<circle fill="#CEE3BD" cx="1264.764" cy="177.523" r="0.54"/>
		
			<ellipse transform="matrix(0.8144 -0.5803 0.5803 0.8144 131.8356 766.9598)" fill="#A3CE8E" cx="1264.994" cy="177.366" rx="0.096" ry="0.181"/>
	</g>
	<g>
		<circle fill="#CEE3BD" cx="1263.753" cy="179.854" r="0.349"/>
		
			<ellipse transform="matrix(0.8132 -0.582 0.582 0.8132 131.4877 769.16)" fill="#A3CE8E" cx="1263.902" cy="179.755" rx="0.061" ry="0.116"/>
	</g>
	<g>
		<circle fill="#CEE3BD" cx="1264.937" cy="181.979" r="0.274"/>
		<path fill="#A3CE8E" d="M1264.999,181.825c0.022-0.016,0.063,0.005,0.093,0.046s0.035,0.087,0.014,0.103s-0.063-0.005-0.093-0.046
			S1264.978,181.841,1264.999,181.825z"/>
	</g>
	<g>
		<circle fill="#CEE3BD" cx="1264.389" cy="183.006" r="0.273"/>
		<path fill="#A3CE8E" d="M1264.451,182.852c0.021-0.016,0.063,0.005,0.093,0.046s0.035,0.087,0.013,0.103
			c-0.021,0.016-0.063-0.005-0.092-0.046S1264.43,182.867,1264.451,182.852z"/>
	</g>
	<g>
		<circle fill="#CEE3BD" cx="1265.122" cy="184.034" r="0.274"/>
		
			<ellipse transform="matrix(0.8131 -0.5822 0.5822 0.8131 129.4354 770.9958)" fill="#A3CE8E" cx="1265.24" cy="183.953" rx="0.049" ry="0.091"/>
	</g>
	<g>
		<circle fill="#CEE3BD" cx="1262.107" cy="174.877" r="0.715"/>
		
			<ellipse transform="matrix(0.8145 -0.5801 0.5801 0.8145 132.8276 764.7823)" fill="#A3CE8E" cx="1262.408" cy="174.67" rx="0.127" ry="0.239"/>
	</g>
</g>
<g>
	<g>
		<circle fill="#CEE3BD" cx="1566.348" cy="373.499" r="1.287"/>
		
			<ellipse transform="matrix(0.8156 -0.5786 0.5786 0.8156 73.0323 975.4216)" fill="#A3CE8E" cx="1566.892" cy="373.127" rx="0.229" ry="0.429"/>
	</g>
	<g>
		<circle fill="#CEE3BD" cx="1567.43" cy="379.731" r="0.54"/>
		
			<ellipse transform="matrix(0.8144 -0.5803 0.5803 0.8144 70.6678 980.1149)" fill="#A3CE8E" cx="1567.66" cy="379.574" rx="0.096" ry="0.181"/>
	</g>
	<g>
		<circle fill="#CEE3BD" cx="1566.419" cy="382.063" r="0.349"/>
		
			<ellipse transform="matrix(0.8132 -0.582 0.582 0.8132 70.3439 983.0829)" fill="#A3CE8E" cx="1566.568" cy="381.963" rx="0.061" ry="0.116"/>
	</g>
	<g>
		<circle fill="#CEE3BD" cx="1567.603" cy="384.187" r="0.274"/>
		<path fill="#A3CE8E" d="M1567.665,384.033c0.022-0.016,0.063,0.005,0.093,0.046s0.035,0.087,0.014,0.103s-0.063-0.005-0.093-0.046
			S1567.644,384.049,1567.665,384.033z"/>
	</g>
	<g>
		<circle fill="#CEE3BD" cx="1567.055" cy="385.214" r="0.273"/>
		<path fill="#A3CE8E" d="M1567.117,385.06c0.021-0.016,0.063,0.005,0.093,0.046s0.035,0.087,0.013,0.103
			c-0.021,0.016-0.063-0.005-0.092-0.046S1567.096,385.075,1567.117,385.06z"/>
	</g>
	<g>
		<circle fill="#CEE3BD" cx="1567.788" cy="386.242" r="0.274"/>
		
			<ellipse transform="matrix(0.8131 -0.5822 0.5822 0.8131 68.2946 985.006)" fill="#A3CE8E" cx="1567.906" cy="386.161" rx="0.049" ry="0.091"/>
	</g>
	<g>
		<circle fill="#CEE3BD" cx="1564.773" cy="377.085" r="0.715"/>
		
			<ellipse transform="matrix(0.8145 -0.5801 0.5801 0.8145 71.6582 977.8805)" fill="#A3CE8E" cx="1565.074" cy="376.878" rx="0.127" ry="0.239"/>
	</g>
</g>
<g>
	<g>
		<circle fill="#CEE3BD" cx="792.496" cy="844.455" r="7.6"/>
		
			<ellipse transform="matrix(0.8147 -0.5799 0.5799 0.8147 -340.9897 617.5216)" fill="#A3CE8E" cx="795.641" cy="842.252" rx="1.348" ry="2.532"/>
	</g>
	<g>
		<circle fill="#CEE3BD" cx="798.886" cy="881.241" r="3.186"/>
		
			<ellipse transform="matrix(0.8148 -0.5798 0.5798 0.8148 -362.1824 627.0126)" fill="#A3CE8E" cx="800.246" cy="880.358" rx="0.565" ry="1.062"/>
	</g>
	<g>
		<circle fill="#CEE3BD" cx="792.915" cy="895.004" r="2.06"/>
		
			<ellipse transform="matrix(0.8142 -0.5806 0.5806 0.8142 -371.821 627.0437)" fill="#A3CE8E" cx="793.731" cy="894.424" rx="0.366" ry="0.687"/>
	</g>
	<g>
		<circle fill="#CEE3BD" cx="799.904" cy="907.543" r="1.618"/>
		
			<ellipse transform="matrix(0.8141 -0.5808 0.5808 0.8141 -377.978 633.6105)" fill="#A3CE8E" cx="800.602" cy="907.142" rx="0.287" ry="0.538"/>
	</g>
	<g>
		<circle fill="#CEE3BD" cx="796.668" cy="913.604" r="1.617"/>
		
			<ellipse transform="matrix(0.8152 -0.5791 0.5791 0.8152 -381.5205 630.4867)" fill="#A3CE8E" cx="797.307" cy="913.143" rx="0.287" ry="0.54"/>
	</g>
	<g>
		<circle fill="#CEE3BD" cx="800.998" cy="919.677" r="1.617"/>
		
			<ellipse transform="matrix(0.8133 -0.5819 0.5819 0.8133 -385.1985 638.1278)" fill="#A3CE8E" cx="801.675" cy="919.246" rx="0.287" ry="0.54"/>
	</g>
	<g>
		<circle fill="#CEE3BD" cx="783.202" cy="865.623" r="4.224"/>
		
			<ellipse transform="matrix(0.8145 -0.5801 0.5801 0.8145 -355.8622 615.7319)" fill="#A3CE8E" cx="785.01" cy="864.398" rx="0.75" ry="1.408"/>
	</g>
</g>
<g>
	<g>
		<circle fill="#CEE3BD" cx="1182.856" cy="409.204" r="15.295"/>
		
			<ellipse transform="matrix(0.5802 -0.8145 0.8145 0.5802 164.2246 1128.1406)" fill="#A3CE8E" cx="1176.447" cy="404.767" rx="5.096" ry="2.713"/>
	</g>
	<g>
		<circle fill="#CEE3BD" cx="1169.994" cy="483.241" r="6.412"/>
		<path fill="#A3CE8E" d="M1168.218,482.038c-0.685,0.96-1.654,1.445-2.164,1.081c-0.512-0.365-0.373-1.438,0.312-2.401
			c0.686-0.961,1.653-1.441,2.165-1.078C1169.041,480.001,1168.902,481.077,1168.218,482.038z"/>
	</g>
	<g>
		<circle fill="#CEE3BD" cx="1182.015" cy="510.938" r="4.146"/>
		
			<ellipse transform="matrix(0.5804 -0.8143 0.8143 0.5804 80.1421 1175.002)" fill="#A3CE8E" cx="1180.26" cy="509.733" rx="1.384" ry="0.736"/>
	</g>
	<g>
		<circle fill="#CEE3BD" cx="1167.948" cy="536.176" r="3.255"/>
		<path fill="#A3CE8E" d="M1167.043,535.566c-0.346,0.486-0.838,0.731-1.1,0.547c-0.259-0.183-0.188-0.729,0.161-1.217
			c0.346-0.486,0.838-0.734,1.098-0.547C1167.464,534.531,1167.393,535.079,1167.043,535.566z"/>
	</g>
	<g>
		<circle fill="#CEE3BD" cx="1174.457" cy="548.369" r="3.255"/>
		<path fill="#A3CE8E" d="M1173.555,547.76c-0.346,0.487-0.838,0.732-1.1,0.547c-0.259-0.182-0.188-0.729,0.16-1.217
			c0.347-0.486,0.838-0.733,1.099-0.547C1173.975,546.726,1173.903,547.271,1173.555,547.76z"/>
	</g>
	<g>
		<circle fill="#CEE3BD" cx="1165.744" cy="560.596" r="3.255"/>
		
			<ellipse transform="matrix(0.5817 -0.8134 0.8134 0.5817 31.8193 1181.1475)" fill="#A3CE8E" cx="1164.393" cy="559.634" rx="1.084" ry="0.577"/>
	</g>
	<g>
		<circle fill="#CEE3BD" cx="1201.559" cy="451.807" r="8.501"/>
		
			<ellipse transform="matrix(0.5799 -0.8147 0.8147 0.5799 137.145 1164.667)" fill="#A3CE8E" cx="1197.931" cy="449.346" rx="2.833" ry="1.509"/>
	</g>
</g>
<g>
	<g>
		<circle fill="#CEE3BD" cx="1062.204" cy="124.312" r="13.675"/>
		
			<ellipse transform="matrix(0.5802 -0.8145 0.8145 0.5802 345.4947 911.012)" fill="#A3CE8E" cx="1056.44" cy="120.372" rx="4.556" ry="2.426"/>
	</g>
	<g>
		<circle fill="#CEE3BD" cx="1050.705" cy="190.507" r="5.732"/>
		
			<ellipse transform="matrix(0.5804 -0.8143 0.8143 0.5804 286.1113 932.8571)" fill="#A3CE8E" cx="1048.257" cy="188.799" rx="1.91" ry="1.016"/>
	</g>
	<g>
		<circle fill="#CEE3BD" cx="1061.452" cy="215.271" r="3.708"/>
		
			<ellipse transform="matrix(0.5806 -0.8142 0.8142 0.5806 270.1284 952.8657)" fill="#A3CE8E" cx="1059.925" cy="214.244" rx="1.237" ry="0.658"/>
	</g>
	<g>
		<circle fill="#CEE3BD" cx="1048.875" cy="237.835" r="2.911"/>
		
			<ellipse transform="matrix(0.5809 -0.814 0.814 0.5809 246.1227 952.0692)" fill="#A3CE8E" cx="1047.654" cy="237.015" rx="0.969" ry="0.514"/>
	</g>
	<g>
		<circle fill="#CEE3BD" cx="1054.697" cy="248.738" r="2.911"/>
		
			<ellipse transform="matrix(0.5809 -0.814 0.814 0.5809 239.7526 961.3644)" fill="#A3CE8E" cx="1053.496" cy="247.849" rx="0.969" ry="0.516"/>
	</g>
	<g>
		<circle fill="#CEE3BD" cx="1046.906" cy="259.669" r="2.911"/>
		
			<ellipse transform="matrix(0.5818 -0.8133 0.8133 0.5818 226.7354 958.7153)" fill="#A3CE8E" cx="1045.655" cy="258.873" rx="0.97" ry="0.517"/>
	</g>
	<g>
		<circle fill="#CEE3BD" cx="1078.927" cy="162.402" r="7.602"/>
		
			<ellipse transform="matrix(0.5801 -0.8146 0.8146 0.5801 321.2609 943.4918)" fill="#A3CE8E" cx="1075.696" cy="160.164" rx="2.533" ry="1.349"/>
	</g>
</g>
<g>
	<g>
		<circle fill="#CEE3BD" cx="1055.07" cy="449.329" r="1.859"/>
		
			<ellipse transform="matrix(0.5803 -0.8144 0.8144 0.5803 77.0087 1047.0105)" fill="#A3CE8E" cx="1054.286" cy="448.793" rx="0.619" ry="0.33"/>
	</g>
	<g>
		<circle fill="#CEE3BD" cx="1053.506" cy="458.329" r="0.78"/>
		
			<ellipse transform="matrix(0.5809 -0.814 0.814 0.5809 68.5182 1049.2666)" fill="#A3CE8E" cx="1053.174" cy="458.097" rx="0.26" ry="0.138"/>
	</g>
	<g>
		<circle fill="#CEE3BD" cx="1054.968" cy="461.697" r="0.504"/>
		
			<ellipse transform="matrix(0.5806 -0.8142 0.8142 0.5806 66.607 1052.4098)" fill="#A3CE8E" cx="1054.76" cy="461.557" rx="0.168" ry="0.09"/>
	</g>
	<g>
		<circle fill="#CEE3BD" cx="1053.258" cy="464.764" r="0.396"/>
		
			<ellipse transform="matrix(0.5818 -0.8134 0.8134 0.5818 62.5117 1050.8749)" fill="#A3CE8E" cx="1053.092" cy="464.653" rx="0.132" ry="0.07"/>
	</g>
	<g>
		<circle fill="#CEE3BD" cx="1054.049" cy="466.247" r="0.396"/>
		
			<ellipse transform="matrix(0.5809 -0.814 0.814 0.5809 62.2771 1053.2042)" fill="#A3CE8E" cx="1053.885" cy="466.126" rx="0.132" ry="0.07"/>
	</g>
	<g>
		<circle fill="#CEE3BD" cx="1052.99" cy="467.733" r="0.396"/>
		
			<ellipse transform="matrix(0.5818 -0.8134 0.8134 0.5818 59.9812 1051.897)" fill="#A3CE8E" cx="1052.82" cy="467.625" rx="0.132" ry="0.07"/>
	</g>
	<g>
		<circle fill="#CEE3BD" cx="1057.344" cy="454.508" r="1.033"/>
		
			<ellipse transform="matrix(0.58 -0.8146 0.8146 0.58 73.9247 1051.7815)" fill="#A3CE8E" cx="1056.904" cy="454.204" rx="0.344" ry="0.184"/>
	</g>
</g>
<g>
	<g>
		<circle fill="#CEE3BD" cx="652.501" cy="666.638" r="1.859"/>
		
			<ellipse transform="matrix(0.5803 -0.8144 0.8144 0.5803 -268.9437 810.3599)" fill="#A3CE8E" cx="651.718" cy="666.102" rx="0.619" ry="0.33"/>
	</g>
	<g>
		<circle fill="#CEE3BD" cx="650.938" cy="675.638" r="0.78"/>
		
			<ellipse transform="matrix(0.5809 -0.814 0.814 0.5809 -277.0917 812.6588)" fill="#A3CE8E" cx="650.605" cy="675.406" rx="0.26" ry="0.139"/>
	</g>
	<g>
		<circle fill="#CEE3BD" cx="652.4" cy="679.005" r="0.504"/>
		
			<ellipse transform="matrix(0.5812 -0.8137 0.8137 0.5812 -279.3024 814.993)" fill="#A3CE8E" cx="652.192" cy="678.865" rx="0.168" ry="0.09"/>
	</g>
	<g>
		<circle fill="#CEE3BD" cx="650.69" cy="682.073" r="0.396"/>
		
			<ellipse transform="matrix(0.5826 -0.8127 0.8127 0.5826 -282.7487 813.3217)" fill="#A3CE8E" cx="650.523" cy="681.961" rx="0.132" ry="0.07"/>
	</g>
	<g>
		<circle fill="#CEE3BD" cx="651.481" cy="683.556" r="0.396"/>
		
			<ellipse transform="matrix(0.5809 -0.814 0.814 0.5809 -283.3297 816.5968)" fill="#A3CE8E" cx="651.317" cy="683.435" rx="0.132" ry="0.07"/>
	</g>
	<g>
		<circle fill="#CEE3BD" cx="650.421" cy="685.042" r="0.396"/>
		
			<ellipse transform="matrix(0.5809 -0.814 0.814 0.5809 -284.9963 816.3578)" fill="#A3CE8E" cx="650.252" cy="684.934" rx="0.132" ry="0.07"/>
	</g>
	<g>
		<circle fill="#CEE3BD" cx="654.776" cy="671.816" r="1.033"/>
		
			<ellipse transform="matrix(0.5803 -0.8144 0.8144 0.5803 -272.2568 814.7286)" fill="#A3CE8E" cx="654.336" cy="671.513" rx="0.344" ry="0.184"/>
	</g>
</g>
<g>
	<g>
		<circle fill="#CEE3BD" cx="541.668" cy="259.551" r="1.859"/>
		
			<ellipse transform="matrix(0.5803 -0.8144 0.8144 0.5803 16.0779 549.227)" fill="#A3CE8E" cx="540.885" cy="259.015" rx="0.619" ry="0.33"/>
	</g>
	<g>
		<circle fill="#CEE3BD" cx="540.104" cy="268.551" r="0.78"/>
		
			<ellipse transform="matrix(0.5809 -0.814 0.814 0.5809 7.8196 551.8245)" fill="#A3CE8E" cx="539.772" cy="268.319" rx="0.26" ry="0.139"/>
	</g>
	<g>
		<circle fill="#CEE3BD" cx="541.566" cy="271.918" r="0.504"/>
		
			<ellipse transform="matrix(0.5812 -0.8137 0.8137 0.5812 5.545 554.3317)" fill="#A3CE8E" cx="541.358" cy="271.778" rx="0.168" ry="0.09"/>
	</g>
	<g>
		<circle fill="#CEE3BD" cx="539.856" cy="274.986" r="0.396"/>
		
			<ellipse transform="matrix(0.5826 -0.8127 0.8127 0.5826 1.8455 553.3429)" fill="#A3CE8E" cx="539.69" cy="274.875" rx="0.132" ry="0.07"/>
	</g>
	<g>
		<circle fill="#CEE3BD" cx="540.647" cy="276.469" r="0.396"/>
		
			<ellipse transform="matrix(0.5809 -0.814 0.814 0.5809 1.5807 555.7653)" fill="#A3CE8E" cx="540.484" cy="276.348" rx="0.132" ry="0.07"/>
	</g>
	<g>
		<circle fill="#CEE3BD" cx="539.588" cy="277.955" r="0.396"/>
		
			<ellipse transform="matrix(0.5809 -0.814 0.814 0.5809 -0.086 555.5263)" fill="#A3CE8E" cx="539.418" cy="277.847" rx="0.132" ry="0.07"/>
	</g>
	<g>
		<circle fill="#CEE3BD" cx="543.942" cy="264.729" r="1.033"/>
		
			<ellipse transform="matrix(0.5803 -0.8144 0.8144 0.5803 12.7594 553.6104)" fill="#A3CE8E" cx="543.502" cy="264.426" rx="0.344" ry="0.184"/>
	</g>
</g>
<g>
	<g>
		<circle fill="#CEE3BD" cx="825.168" cy="215.025" r="1.859"/>
		
			<ellipse transform="matrix(0.5803 -0.8144 0.8144 0.5803 171.3345 761.4279)" fill="#A3CE8E" cx="824.385" cy="214.49" rx="0.619" ry="0.33"/>
	</g>
	<g>
		<circle fill="#CEE3BD" cx="823.604" cy="224.026" r="0.78"/>
		
			<ellipse transform="matrix(0.5809 -0.814 0.814 0.5809 162.8826 763.9286)" fill="#A3CE8E" cx="823.272" cy="223.793" rx="0.26" ry="0.139"/>
	</g>
	<g>
		<circle fill="#CEE3BD" cx="825.066" cy="227.393" r="0.504"/>
		
			<ellipse transform="matrix(0.5812 -0.8137 0.8137 0.5812 160.4958 766.3795)" fill="#A3CE8E" cx="824.858" cy="227.253" rx="0.168" ry="0.09"/>
	</g>
	<g>
		<circle fill="#CEE3BD" cx="823.356" cy="230.461" r="0.396"/>
		
			<ellipse transform="matrix(0.5826 -0.8127 0.8127 0.5826 156.3538 765.1686)" fill="#A3CE8E" cx="823.19" cy="230.349" rx="0.132" ry="0.07"/>
	</g>
	<g>
		<circle fill="#CEE3BD" cx="824.147" cy="231.943" r="0.396"/>
		
			<ellipse transform="matrix(0.5809 -0.814 0.814 0.5809 156.6418 767.8684)" fill="#A3CE8E" cx="823.984" cy="231.822" rx="0.132" ry="0.07"/>
	</g>
	<g>
		<circle fill="#CEE3BD" cx="823.088" cy="233.43" r="0.396"/>
		
			<ellipse transform="matrix(0.5809 -0.814 0.814 0.5809 154.9751 767.6295)" fill="#A3CE8E" cx="822.918" cy="233.321" rx="0.132" ry="0.07"/>
	</g>
	<g>
		<circle fill="#CEE3BD" cx="827.442" cy="220.204" r="1.033"/>
		
			<ellipse transform="matrix(0.5803 -0.8144 0.8144 0.5803 168.0065 765.8065)" fill="#A3CE8E" cx="827.002" cy="219.9" rx="0.344" ry="0.184"/>
	</g>
</g>
<g>
	<g>
		<circle fill="#CEE3BD" cx="693.197" cy="70.497" r="1.859"/>
		
			<ellipse transform="matrix(0.5803 -0.8144 0.8144 0.5803 233.6499 593.2838)" fill="#A3CE8E" cx="692.413" cy="69.961" rx="0.619" ry="0.33"/>
	</g>
	<g>
		<circle fill="#CEE3BD" cx="691.633" cy="79.497" r="0.78"/>
		
			<ellipse transform="matrix(0.5809 -0.814 0.814 0.5809 225.2157 595.9312)" fill="#A3CE8E" cx="691.301" cy="79.265" rx="0.26" ry="0.139"/>
	</g>
	<g>
		<circle fill="#CEE3BD" cx="693.095" cy="82.864" r="0.504"/>
		
			<ellipse transform="matrix(0.5812 -0.8137 0.8137 0.5812 222.8392 598.467)" fill="#A3CE8E" cx="692.887" cy="82.724" rx="0.168" ry="0.09"/>
	</g>
	<g>
		<circle fill="#CEE3BD" cx="691.385" cy="85.932" r="0.396"/>
		
			<ellipse transform="matrix(0.5826 -0.8127 0.8127 0.5826 218.7372 597.5914)" fill="#A3CE8E" cx="691.219" cy="85.82" rx="0.132" ry="0.07"/>
	</g>
	<g>
		<circle fill="#CEE3BD" cx="692.176" cy="87.415" r="0.396"/>
		
			<ellipse transform="matrix(0.5809 -0.814 0.814 0.5809 218.9752 599.8723)" fill="#A3CE8E" cx="692.012" cy="87.293" rx="0.132" ry="0.07"/>
	</g>
	<g>
		<circle fill="#CEE3BD" cx="691.116" cy="88.901" r="0.396"/>
		
			<ellipse transform="matrix(0.5809 -0.814 0.814 0.5809 217.3085 599.6334)" fill="#A3CE8E" cx="690.947" cy="88.792" rx="0.132" ry="0.07"/>
	</g>
	<g>
		<circle fill="#CEE3BD" cx="695.471" cy="75.675" r="1.033"/>
		
			<ellipse transform="matrix(0.5803 -0.8144 0.8144 0.5803 230.3228 597.6696)" fill="#A3CE8E" cx="695.031" cy="75.372" rx="0.344" ry="0.184"/>
	</g>
</g>
<g>
	<g>
		<circle fill="#CEE3BD" cx="134.465" cy="60.167" r="1.859"/>
		
			<ellipse transform="matrix(0.5803 -0.8144 0.8144 0.5803 7.5452 133.9031)" fill="#A3CE8E" cx="133.682" cy="59.631" rx="0.619" ry="0.33"/>
	</g>
	<g>
		<circle fill="#CEE3BD" cx="132.902" cy="69.167" r="0.78"/>
		
			<ellipse transform="matrix(0.5809 -0.814 0.814 0.5809 -0.5502 136.8015)" fill="#A3CE8E" cx="132.569" cy="68.935" rx="0.26" ry="0.139"/>
	</g>
	<g>
		<circle fill="#CEE3BD" cx="134.364" cy="72.535" r="0.504"/>
		
			<ellipse transform="matrix(0.5812 -0.8137 0.8137 0.5812 -2.7306 139.4829)" fill="#A3CE8E" cx="134.156" cy="72.395" rx="0.168" ry="0.09"/>
	</g>
	<g>
		<circle fill="#CEE3BD" cx="132.654" cy="75.603" r="0.396"/>
		
			<ellipse transform="matrix(0.5826 -0.8127 0.8127 0.5826 -6.0589 139.1828)" fill="#A3CE8E" cx="132.487" cy="75.491" rx="0.132" ry="0.07"/>
	</g>
	<g>
		<circle fill="#CEE3BD" cx="133.445" cy="77.085" r="0.396"/>
		
			<ellipse transform="matrix(0.5809 -0.814 0.814 0.5809 -6.7877 140.745)" fill="#A3CE8E" cx="133.281" cy="76.964" rx="0.132" ry="0.07"/>
	</g>
	<g>
		<circle fill="#CEE3BD" cx="132.385" cy="78.571" r="0.396"/>
		
			<ellipse transform="matrix(0.5809 -0.814 0.814 0.5809 -8.4544 140.506)" fill="#A3CE8E" cx="132.216" cy="78.463" rx="0.132" ry="0.07"/>
	</g>
	<g>
		<circle fill="#CEE3BD" cx="136.74" cy="65.346" r="1.033"/>
		
			<ellipse transform="matrix(0.5803 -0.8144 0.8144 0.5803 4.2347 138.3011)" fill="#A3CE8E" cx="136.3" cy="65.042" rx="0.344" ry="0.184"/>
	</g>
</g>
<g>
	<g>
		<circle fill="#CEE3BD" cx="283.833" cy="335.304" r="1.859"/>
		
			<ellipse transform="matrix(0.5803 -0.8144 0.8144 0.5803 -153.8387 371.0355)" fill="#A3CE8E" cx="283.05" cy="334.768" rx="0.619" ry="0.33"/>
	</g>
	<g>
		<circle fill="#CEE3BD" cx="282.269" cy="344.304" r="0.78"/>
		
			<ellipse transform="matrix(0.5809 -0.814 0.814 0.5809 -161.9055 373.6995)" fill="#A3CE8E" cx="281.937" cy="344.072" rx="0.26" ry="0.139"/>
	</g>
	<g>
		<circle fill="#CEE3BD" cx="283.731" cy="347.671" r="0.504"/>
		
			<ellipse transform="matrix(0.5812 -0.8137 0.8137 0.5812 -164.0691 376.2451)" fill="#A3CE8E" cx="283.523" cy="347.531" rx="0.168" ry="0.09"/>
	</g>
	<g>
		<circle fill="#CEE3BD" cx="282.021" cy="350.739" r="0.396"/>
		
			<ellipse transform="matrix(0.5826 -0.8127 0.8127 0.5826 -167.3307 375.409)" fill="#A3CE8E" cx="281.855" cy="350.627" rx="0.132" ry="0.07"/>
	</g>
	<g>
		<circle fill="#CEE3BD" cx="282.812" cy="352.222" r="0.396"/>
		
			<ellipse transform="matrix(0.5809 -0.814 0.814 0.5809 -168.1426 377.6409)" fill="#A3CE8E" cx="282.649" cy="352.101" rx="0.132" ry="0.07"/>
	</g>
	<g>
		<circle fill="#CEE3BD" cx="281.753" cy="353.708" r="0.396"/>
		
			<ellipse transform="matrix(0.5809 -0.814 0.814 0.5809 -169.8093 377.4019)" fill="#A3CE8E" cx="281.583" cy="353.6" rx="0.132" ry="0.07"/>
	</g>
	<g>
		<circle fill="#CEE3BD" cx="286.107" cy="340.482" r="1.033"/>
		
			<ellipse transform="matrix(0.5803 -0.8144 0.8144 0.5803 -157.1479 375.4221)" fill="#A3CE8E" cx="285.667" cy="340.179" rx="0.344" ry="0.184"/>
	</g>
</g>
<g>
	<g>
		<circle fill="#CEE3BD" cx="108.198" cy="514.921" r="1.859"/>
		
			<ellipse transform="matrix(0.5803 -0.8144 0.8144 0.5803 -373.8428 303.3856)" fill="#A3CE8E" cx="107.415" cy="514.385" rx="0.619" ry="0.33"/>
	</g>
	<g>
		<circle fill="#CEE3BD" cx="106.635" cy="523.921" r="0.78"/>
		
			<ellipse transform="matrix(0.5809 -0.814 0.814 0.5809 -381.723 306.0161)" fill="#A3CE8E" cx="106.302" cy="523.689" rx="0.26" ry="0.139"/>
	</g>
	<g>
		<circle fill="#CEE3BD" cx="108.097" cy="527.289" r="0.504"/>
		
			<ellipse transform="matrix(0.5812 -0.8137 0.8137 0.5812 -383.7786 308.5425)" fill="#A3CE8E" cx="107.889" cy="527.148" rx="0.168" ry="0.09"/>
	</g>
	<g>
		<circle fill="#CEE3BD" cx="106.387" cy="530.356" r="0.396"/>
		
			<ellipse transform="matrix(0.5826 -0.8127 0.8127 0.5826 -386.6133 307.6306)" fill="#A3CE8E" cx="106.22" cy="530.245" rx="0.132" ry="0.07"/>
	</g>
	<g>
		<circle fill="#CEE3BD" cx="107.178" cy="531.839" r="0.396"/>
		
			<ellipse transform="matrix(0.5809 -0.814 0.814 0.5809 -387.9584 309.9572)" fill="#A3CE8E" cx="107.014" cy="531.718" rx="0.132" ry="0.07"/>
	</g>
	<g>
		<circle fill="#CEE3BD" cx="106.118" cy="533.325" r="0.396"/>
		
			<ellipse transform="matrix(0.5809 -0.814 0.814 0.5809 -389.6251 309.7182)" fill="#A3CE8E" cx="105.949" cy="533.217" rx="0.132" ry="0.07"/>
	</g>
	<g>
		<circle fill="#CEE3BD" cx="110.473" cy="520.1" r="1.033"/>
		
			<ellipse transform="matrix(0.5803 -0.8144 0.8144 0.5803 -377.1428 307.7705)" fill="#A3CE8E" cx="110.033" cy="519.796" rx="0.344" ry="0.184"/>
	</g>
</g>
<g>
	<g>
		<circle fill="#CEE3BD" cx="351.532" cy="811.104" r="1.859"/>
		
			<ellipse transform="matrix(0.5803 -0.8144 0.8144 0.5803 -512.9275 625.8802)" fill="#A3CE8E" cx="350.749" cy="810.569" rx="0.619" ry="0.33"/>
	</g>
	<g>
		<circle fill="#CEE3BD" cx="349.969" cy="820.105" r="0.78"/>
		
			<ellipse transform="matrix(0.5809 -0.814 0.814 0.5809 -520.8274 628.2223)" fill="#A3CE8E" cx="349.636" cy="819.873" rx="0.26" ry="0.139"/>
	</g>
	<g>
		<circle fill="#CEE3BD" cx="351.43" cy="823.472" r="0.504"/>
		
			<ellipse transform="matrix(0.5812 -0.8137 0.8137 0.5812 -522.8943 630.5814)" fill="#A3CE8E" cx="351.222" cy="823.332" rx="0.168" ry="0.09"/>
	</g>
	<g>
		<circle fill="#CEE3BD" cx="349.72" cy="826.54" r="0.396"/>
		
			<ellipse transform="matrix(0.5826 -0.8127 0.8127 0.5826 -525.7731 629.0096)" fill="#A3CE8E" cx="349.554" cy="826.428" rx="0.132" ry="0.07"/>
	</g>
	<g>
		<circle fill="#CEE3BD" cx="350.511" cy="828.022" r="0.396"/>
		
			<ellipse transform="matrix(0.5809 -0.814 0.814 0.5809 -527.063 632.1606)" fill="#A3CE8E" cx="350.348" cy="827.901" rx="0.132" ry="0.07"/>
	</g>
	<g>
		<circle fill="#CEE3BD" cx="349.452" cy="829.509" r="0.396"/>
		
			<ellipse transform="matrix(0.5809 -0.814 0.814 0.5809 -528.7297 631.9216)" fill="#A3CE8E" cx="349.282" cy="829.4" rx="0.132" ry="0.07"/>
	</g>
	<g>
		<circle fill="#CEE3BD" cx="353.806" cy="816.283" r="1.033"/>
		
			<ellipse transform="matrix(0.5803 -0.8144 0.8144 0.5803 -516.2285 630.251)" fill="#A3CE8E" cx="353.366" cy="815.979" rx="0.344" ry="0.184"/>
	</g>
</g>
<g>
	<g>
		<circle fill="#CEE3BD" cx="1547.834" cy="81.972" r="1.859"/>
		
			<ellipse transform="matrix(0.5803 -0.8144 0.8144 0.5803 583.0228 1294.1389)" fill="#A3CE8E" cx="1547.051" cy="81.436" rx="0.619" ry="0.33"/>
	</g>
	<g>
		<circle fill="#CEE3BD" cx="1546.271" cy="90.972" r="0.78"/>
		
			<ellipse transform="matrix(0.5809 -0.814 0.814 0.5809 574.0688 1296.4049)" fill="#A3CE8E" cx="1545.938" cy="90.74" rx="0.26" ry="0.138"/>
	</g>
	<g>
		<circle fill="#CEE3BD" cx="1547.733" cy="94.339" r="0.504"/>
		
			<ellipse transform="matrix(0.5806 -0.8142 0.8142 0.5806 572.4075 1299.5428)" fill="#A3CE8E" cx="1547.525" cy="94.199" rx="0.168" ry="0.09"/>
	</g>
	<g>
		<circle fill="#CEE3BD" cx="1546.023" cy="97.407" r="0.396"/>
		
			<ellipse transform="matrix(0.5818 -0.8134 0.8134 0.5818 567.3967 1298.0266)" fill="#A3CE8E" cx="1545.856" cy="97.296" rx="0.132" ry="0.07"/>
	</g>
	<g>
		<circle fill="#CEE3BD" cx="1546.814" cy="98.889" r="0.396"/>
		
			<ellipse transform="matrix(0.5809 -0.814 0.814 0.5809 567.8235 1300.3425)" fill="#A3CE8E" cx="1546.65" cy="98.769" rx="0.132" ry="0.07"/>
	</g>
	<g>
		<circle fill="#CEE3BD" cx="1545.754" cy="100.376" r="0.396"/>
		
			<ellipse transform="matrix(0.5818 -0.8134 0.8134 0.5818 564.8661 1299.0487)" fill="#A3CE8E" cx="1545.585" cy="100.267" rx="0.132" ry="0.07"/>
	</g>
	<g>
		<circle fill="#CEE3BD" cx="1550.109" cy="87.151" r="1.033"/>
		
			<ellipse transform="matrix(0.58 -0.8146 0.8146 0.58 580.1691 1298.905)" fill="#A3CE8E" cx="1549.669" cy="86.846" rx="0.344" ry="0.184"/>
	</g>
</g>
<g>
	<g>
		<circle fill="#CEE3BD" cx="1733.834" cy="516.943" r="1.859"/>
		
			<ellipse transform="matrix(0.5803 -0.8144 0.8144 0.5803 306.8409 1628.1935)" fill="#A3CE8E" cx="1733.051" cy="516.408" rx="0.619" ry="0.33"/>
	</g>
	<g>
		<circle fill="#CEE3BD" cx="1732.271" cy="525.944" r="0.78"/>
		
			<ellipse transform="matrix(0.5809 -0.814 0.814 0.5809 297.9631 1630.1108)" fill="#A3CE8E" cx="1731.938" cy="525.711" rx="0.26" ry="0.138"/>
	</g>
	<g>
		<circle fill="#CEE3BD" cx="1733.733" cy="529.311" r="0.504"/>
		
			<ellipse transform="matrix(0.5806 -0.8142 0.8142 0.5806 296.2607 1633.4366)" fill="#A3CE8E" cx="1733.525" cy="529.171" rx="0.168" ry="0.09"/>
	</g>
	<g>
		<circle fill="#CEE3BD" cx="1732.023" cy="532.379" r="0.396"/>
		
			<ellipse transform="matrix(0.5818 -0.8134 0.8134 0.5818 291.4011 1631.2321)" fill="#A3CE8E" cx="1731.856" cy="532.267" rx="0.132" ry="0.07"/>
	</g>
	<g>
		<circle fill="#CEE3BD" cx="1732.814" cy="533.861" r="0.396"/>
		
			<ellipse transform="matrix(0.5809 -0.814 0.814 0.5809 291.7185 1634.0453)" fill="#A3CE8E" cx="1732.65" cy="533.74" rx="0.132" ry="0.07"/>
	</g>
	<g>
		<circle fill="#CEE3BD" cx="1731.754" cy="535.347" r="0.396"/>
		
			<ellipse transform="matrix(0.5818 -0.8134 0.8134 0.5818 288.8705 1632.2542)" fill="#A3CE8E" cx="1731.585" cy="535.239" rx="0.132" ry="0.07"/>
	</g>
	<g>
		<circle fill="#CEE3BD" cx="1736.109" cy="522.122" r="1.033"/>
		
			<ellipse transform="matrix(0.58 -0.8146 0.8146 0.58 303.9495 1633.1326)" fill="#A3CE8E" cx="1735.669" cy="521.818" rx="0.344" ry="0.184"/>
	</g>
</g>
<g>
	<g>
		<circle fill="#CEE3BD" cx="253.338" cy="129.714" r="8.507"/>
		
			<ellipse transform="matrix(0.5803 -0.8144 0.8144 0.5803 1.1899 256.805)" fill="#A3CE8E" cx="249.743" cy="127.248" rx="2.834" ry="1.509"/>
	</g>
	<g>
		<circle fill="#CEE3BD" cx="246.186" cy="170.891" r="3.566"/>
		
			<ellipse transform="matrix(0.5804 -0.8143 0.8143 0.5804 -35.6416 270.5154)" fill="#A3CE8E" cx="244.687" cy="169.844" rx="1.188" ry="0.633"/>
	</g>
	<g>
		<circle fill="#CEE3BD" cx="252.871" cy="186.295" r="2.306"/>
		
			<ellipse transform="matrix(0.5809 -0.8139 0.8139 0.5809 -45.5149 282.8177)" fill="#A3CE8E" cx="251.902" cy="185.611" rx="0.769" ry="0.409"/>
	</g>
	<g>
		<circle fill="#CEE3BD" cx="245.047" cy="200.331" r="1.81"/>
		
			<ellipse transform="matrix(0.5808 -0.8141 0.8141 0.5808 -60.2572 282.6102)" fill="#A3CE8E" cx="244.263" cy="199.81" rx="0.603" ry="0.321"/>
	</g>
	<g>
		<circle fill="#CEE3BD" cx="248.668" cy="207.113" r="1.811"/>
		
			<ellipse transform="matrix(0.5808 -0.8141 0.8141 0.5808 -64.2603 288.4012)" fill="#A3CE8E" cx="247.885" cy="206.592" rx="0.603" ry="0.321"/>
	</g>
	<g>
		<circle fill="#CEE3BD" cx="243.822" cy="213.913" r="1.811"/>
		
			<ellipse transform="matrix(0.5819 -0.8133 0.8133 0.5819 -71.9021 286.916)" fill="#A3CE8E" cx="243.073" cy="213.382" rx="0.603" ry="0.321"/>
	</g>
	<g>
		<circle fill="#CEE3BD" cx="263.74" cy="153.408" r="4.728"/>
		
			<ellipse transform="matrix(0.58 -0.8146 0.8146 0.58 -13.9033 277.0923)" fill="#A3CE8E" cx="261.752" cy="152.029" rx="1.576" ry="0.838"/>
	</g>
</g>
<g>
	<g>
		<circle fill="#CEE3BD" cx="164.654" cy="830.551" r="10.976"/>
		
			<ellipse transform="matrix(0.5802 -0.8145 0.8145 0.5802 -606.7191 477.7047)" fill="#A3CE8E" cx="160.024" cy="827.383" rx="3.657" ry="1.946"/>
	</g>
	<g>
		<circle fill="#CEE3BD" cx="155.425" cy="883.677" r="4.601"/>
		
			<ellipse transform="matrix(0.5805 -0.8143 0.8143 0.5805 -654.0686 495.1365)" fill="#A3CE8E" cx="153.469" cy="882.307" rx="1.533" ry="0.816"/>
	</g>
	<g>
		<circle fill="#CEE3BD" cx="164.05" cy="903.552" r="2.976"/>
		
			<ellipse transform="matrix(0.5803 -0.8144 0.8144 0.5803 -666.8501 511.4011)" fill="#A3CE8E" cx="162.752" cy="902.699" rx="0.993" ry="0.528"/>
	</g>
	<g>
		<circle fill="#CEE3BD" cx="153.957" cy="921.661" r="2.336"/>
		
			<ellipse transform="matrix(0.5806 -0.8142 0.8142 0.5806 -685.6839 510.7344)" fill="#A3CE8E" cx="152.94" cy="920.977" rx="0.778" ry="0.414"/>
	</g>
	<g>
		<circle fill="#CEE3BD" cx="158.628" cy="930.411" r="2.336"/>
		
			<ellipse transform="matrix(0.5806 -0.8142 0.8142 0.5806 -690.8486 518.2074)" fill="#A3CE8E" cx="157.612" cy="929.727" rx="0.778" ry="0.414"/>
	</g>
	<g>
		<circle fill="#CEE3BD" cx="152.375" cy="939.185" r="2.336"/>
		
			<ellipse transform="matrix(0.5818 -0.8134 0.8134 0.5818 -700.0378 515.627)" fill="#A3CE8E" cx="151.366" cy="938.516" rx="0.778" ry="0.415"/>
	</g>
	<g>
		<circle fill="#CEE3BD" cx="178.075" cy="861.121" r="6.101"/>
		
			<ellipse transform="matrix(0.58 -0.8146 0.8146 0.58 -626.3224 503.9391)" fill="#A3CE8E" cx="175.541" cy="859.354" rx="2.033" ry="1.083"/>
	</g>
</g>
<g>
	<g>
		<circle fill="#CEE3BD" cx="1092.744" cy="730.946" r="10.976"/>
		
			<ellipse transform="matrix(0.5801 -0.8145 0.8145 0.5801 -135.9033 1191.9304)" fill="#A3CE8E" cx="1088.136" cy="727.782" rx="3.657" ry="1.947"/>
	</g>
	<g>
		<circle fill="#CEE3BD" cx="1083.517" cy="784.072" r="4.601"/>
		
			<ellipse transform="matrix(0.5803 -0.8144 0.8144 0.5803 -183.532 1209.2976)" fill="#A3CE8E" cx="1081.526" cy="782.716" rx="1.533" ry="0.816"/>
	</g>
	<g>
		<circle fill="#CEE3BD" cx="1092.142" cy="803.947" r="2.976"/>
		
			<ellipse transform="matrix(0.5803 -0.8144 0.8144 0.5803 -196.2513 1225.4592)" fill="#A3CE8E" cx="1090.853" cy="803.139" rx="0.993" ry="0.528"/>
	</g>
	<g>
		<circle fill="#CEE3BD" cx="1082.048" cy="822.057" r="2.336"/>
		
			<ellipse transform="matrix(0.5806 -0.8142 0.8142 0.5806 -215.4182 1224.5842)" fill="#A3CE8E" cx="1081.024" cy="821.404" rx="0.778" ry="0.414"/>
	</g>
	<g>
		<circle fill="#CEE3BD" cx="1086.72" cy="830.807" r="2.336"/>
		
			<ellipse transform="matrix(0.5806 -0.8142 0.8142 0.5806 -220.5834 1232.0564)" fill="#A3CE8E" cx="1085.695" cy="830.154" rx="0.778" ry="0.414"/>
	</g>
	<g>
		<circle fill="#CEE3BD" cx="1080.467" cy="839.58" r="2.336"/>
		
			<ellipse transform="matrix(0.5818 -0.8134 0.8134 0.5818 -230.8877 1228.8505)" fill="#A3CE8E" cx="1079.465" cy="838.936" rx="0.778" ry="0.415"/>
	</g>
	<g>
		<circle fill="#CEE3BD" cx="1106.166" cy="761.517" r="6.101"/>
		
			<ellipse transform="matrix(0.5799 -0.8147 0.8147 0.5799 -155.3088 1218.2119)" fill="#A3CE8E" cx="1103.642" cy="759.708" rx="2.032" ry="1.083"/>
	</g>
</g>
<g>
	<g>
		<circle fill="#CEE3BD" cx="1438.191" cy="259.068" r="8.953"/>
		
			<ellipse transform="matrix(0.8145 -0.5802 0.5802 0.8145 118.6963 884.1829)" fill="#A3CE8E" cx="1441.939" cy="256.487" rx="1.588" ry="2.983"/>
	</g>
	<g>
		<circle fill="#CEE3BD" cx="1445.718" cy="302.401" r="3.752"/>
		
			<ellipse transform="matrix(0.8145 -0.5802 0.5802 0.8145 93.7324 895.6451)" fill="#A3CE8E" cx="1447.258" cy="301.267" rx="0.666" ry="1.25"/>
	</g>
	<g>
		<circle fill="#CEE3BD" cx="1438.683" cy="318.613" r="2.427"/>
		
			<ellipse transform="matrix(0.8146 -0.5801 0.5801 0.8146 82.5101 894.0613)" fill="#A3CE8E" cx="1439.683" cy="317.974" rx="0.431" ry="0.81"/>
	</g>
	<g>
		<circle fill="#CEE3BD" cx="1446.916" cy="333.384" r="1.905"/>
		
			<ellipse transform="matrix(0.8147 -0.5799 0.5799 0.8147 75.3379 901.2689)" fill="#A3CE8E" cx="1447.727" cy="332.766" rx="0.338" ry="0.634"/>
	</g>
	<g>
		<circle fill="#CEE3BD" cx="1443.106" cy="340.521" r="1.905"/>
		
			<ellipse transform="matrix(0.8147 -0.5799 0.5799 0.8147 70.493 900.3817)" fill="#A3CE8E" cx="1443.916" cy="339.903" rx="0.338" ry="0.634"/>
	</g>
	<g>
		<circle fill="#CEE3BD" cx="1448.206" cy="347.678" r="1.905"/>
		
			<ellipse transform="matrix(0.8131 -0.5821 0.5821 0.8131 68.694 908.3242)" fill="#A3CE8E" cx="1449.092" cy="347.169" rx="0.338" ry="0.635"/>
	</g>
	<g>
		<circle fill="#CEE3BD" cx="1427.244" cy="284.003" r="4.976"/>
		
			<ellipse transform="matrix(0.8147 -0.5799 0.5799 0.8147 101.0593 881.2631)" fill="#A3CE8E" cx="1429.393" cy="282.51" rx="0.883" ry="1.659"/>
	</g>
</g>
<g>
	<g>
		<circle fill="#CEE3BD" cx="1693.076" cy="855.057" r="10.976"/>
		
			<ellipse transform="matrix(0.5802 -0.8145 0.8145 0.5802 15.0137 1732.9241)" fill="#A3CE8E" cx="1688.48" cy="851.898" rx="3.657" ry="1.947"/>
	</g>
	<g>
		<circle fill="#CEE3BD" cx="1683.849" cy="908.183" r="4.601"/>
		
			<ellipse transform="matrix(0.5803 -0.8144 0.8144 0.5803 -32.6636 1750.2772)" fill="#A3CE8E" cx="1681.832" cy="906.83" rx="1.533" ry="0.815"/>
	</g>
	<g>
		<circle fill="#CEE3BD" cx="1692.474" cy="928.058" r="2.976"/>
		
			<ellipse transform="matrix(0.5803 -0.8144 0.8144 0.5803 -45.3975 1766.4666)" fill="#A3CE8E" cx="1691.182" cy="927.279" rx="0.993" ry="0.528"/>
	</g>
	<g>
		<circle fill="#CEE3BD" cx="1682.38" cy="946.167" r="2.336"/>
		
			<ellipse transform="matrix(0.5806 -0.8142 0.8142 0.5806 -64.7297 1765.3939)" fill="#A3CE8E" cx="1681.345" cy="945.532" rx="0.778" ry="0.413"/>
	</g>
	<g>
		<circle fill="#CEE3BD" cx="1687.052" cy="954.917" r="2.336"/>
		
			<ellipse transform="matrix(0.5803 -0.8144 0.8144 0.5803 -69.5961 1773.5056)" fill="#A3CE8E" cx="1686.016" cy="954.281" rx="0.778" ry="0.413"/>
	</g>
	<g>
		<circle fill="#CEE3BD" cx="1680.799" cy="963.69" r="2.336"/>
		
			<ellipse transform="matrix(0.5818 -0.8134 0.8134 0.5818 -80.7722 1769.0444)" fill="#A3CE8E" cx="1679.796" cy="963.063" rx="0.778" ry="0.415"/>
	</g>
	<g>
		<circle fill="#CEE3BD" cx="1706.498" cy="885.627" r="6.101"/>
		
			<ellipse transform="matrix(0.58 -0.8146 0.8146 0.58 -4.2661 1759.3158)" fill="#A3CE8E" cx="1703.988" cy="883.795" rx="2.033" ry="1.083"/>
	</g>
</g>
<g>
	<g>
		<circle fill="#CEE3BD" cx="1687.098" cy="209.757" r="13.169"/>
		
			<ellipse transform="matrix(0.5801 -0.8145 0.8145 0.5801 538.3552 1456.1827)" fill="#A3CE8E" cx="1681.615" cy="205.909" rx="4.387" ry="2.336"/>
	</g>
	<g>
		<circle fill="#CEE3BD" cx="1676.025" cy="273.5" r="5.52"/>
		
			<ellipse transform="matrix(0.5805 -0.8143 0.8143 0.5805 480.8136 1476.9003)" fill="#A3CE8E" cx="1673.697" cy="271.834" rx="1.839" ry="0.979"/>
	</g>
	<g>
		<circle fill="#CEE3BD" cx="1686.373" cy="297.346" r="3.57"/>
		
			<ellipse transform="matrix(0.5801 -0.8146 0.8146 0.5801 466.1525 1496.7968)" fill="#A3CE8E" cx="1684.804" cy="296.282" rx="1.191" ry="0.634"/>
	</g>
	<g>
		<circle fill="#CEE3BD" cx="1674.262" cy="319.075" r="2.803"/>
		
			<ellipse transform="matrix(0.5808 -0.814 0.814 0.5808 442.2799 1495.353)" fill="#A3CE8E" cx="1673.149" cy="318.216" rx="0.934" ry="0.497"/>
	</g>
	<g>
		<circle fill="#CEE3BD" cx="1679.867" cy="329.573" r="2.803"/>
		
			<ellipse transform="matrix(0.5802 -0.8144 0.8144 0.5802 436.9404 1505.223)" fill="#A3CE8E" cx="1678.755" cy="328.716" rx="0.934" ry="0.498"/>
	</g>
	<g>
		<circle fill="#CEE3BD" cx="1672.365" cy="340.1" r="2.803"/>
		
			<ellipse transform="matrix(0.5816 -0.8135 0.8135 0.5816 423.2568 1501.433)" fill="#A3CE8E" cx="1671.121" cy="339.282" rx="0.934" ry="0.498"/>
	</g>
	<g>
		<circle fill="#CEE3BD" cx="1703.199" cy="246.437" r="7.319"/>
		
			<ellipse transform="matrix(0.58 -0.8146 0.8146 0.58 515.0913 1487.5608)" fill="#A3CE8E" cx="1700.128" cy="244.264" rx="2.439" ry="1.299"/>
	</g>
</g>
<g>
	<g>
		<circle fill="#CEE3BD" cx="1482.959" cy="604.126" r="3.764"/>
		
			<ellipse transform="matrix(0.5801 -0.8145 0.8145 0.5801 130.7476 1459.7727)" fill="#A3CE8E" cx="1481.318" cy="603.064" rx="1.254" ry="0.667"/>
	</g>
	<g>
		<circle fill="#CEE3BD" cx="1479.795" cy="622.347" r="1.578"/>
		
			<ellipse transform="matrix(0.5793 -0.8151 0.8151 0.5793 115.382 1467.2358)" fill="#A3CE8E" cx="1479.1" cy="621.84" rx="0.526" ry="0.28"/>
	</g>
	<g>
		<circle fill="#CEE3BD" cx="1482.754" cy="629.164" r="1.021"/>
		
			<ellipse transform="matrix(0.5812 -0.8137 0.8137 0.5812 109.0833 1469.6011)" fill="#A3CE8E" cx="1482.398" cy="628.816" rx="0.34" ry="0.181"/>
	</g>
	<g>
		<circle fill="#CEE3BD" cx="1479.291" cy="635.375" r="0.801"/>
		
			<ellipse transform="matrix(0.5798 -0.8147 0.8147 0.5798 103.921 1471.7633)" fill="#A3CE8E" cx="1478.924" cy="635.124" rx="0.266" ry="0.142"/>
	</g>
	<g>
		<circle fill="#CEE3BD" cx="1480.894" cy="638.376" r="0.801"/>
		
			<ellipse transform="matrix(0.5805 -0.8142 0.8142 0.5805 101.4124 1473.1841)" fill="#A3CE8E" cx="1480.552" cy="638.163" rx="0.267" ry="0.142"/>
	</g>
	<g>
		<circle fill="#CEE3BD" cx="1478.75" cy="641.386" r="0.801"/>
		
			<ellipse transform="matrix(0.5814 -0.8136 0.8136 0.5814 97.1807 1471.2346)" fill="#A3CE8E" cx="1478.407" cy="641.172" rx="0.267" ry="0.143"/>
	</g>
	<g>
		<circle fill="#CEE3BD" cx="1487.564" cy="614.611" r="2.092"/>
		
			<ellipse transform="matrix(0.58 -0.8146 0.8146 0.58 124.2837 1469.0105)" fill="#A3CE8E" cx="1486.715" cy="613.981" rx="0.697" ry="0.372"/>
	</g>
</g>
</svg>
