<?xml version="1.0" encoding="utf-8"?>
<!-- Generator: Adobe Illustrator 16.0.0, SVG Export Plug-In . SVG Version: 6.00 Build 0)  -->
<!DOCTYPE svg PUBLIC "-//W3C//DTD SVG 1.1//EN" "http://www.w3.org/Graphics/SVG/1.1/DTD/svg11.dtd">
<svg version="1.1" id="Calque_1" xmlns="http://www.w3.org/2000/svg" xmlns:xlink="http://www.w3.org/1999/xlink" x="0px" y="0px"
	 width="20px" height="20px" viewBox="0 0 20 20" enable-background="new 0 0 20 20" xml:space="preserve">
<g>
	<path fill="#A3CE8E" stroke="#6EB860" stroke-width="0.5" stroke-miterlimit="10" d="M1.322,14.135
		c-0.116,0.193-0.189,0.398-0.189,0.617c0,1.002,1.337,1.813,2.986,1.813c1.338,0,2.455-0.537,2.834-1.274
		c0.05,0.019,0.1,0.035,0.151,0.053c0.404,0.712,1.499,1.224,2.805,1.224c1.366,0,2.506-0.562,2.86-1.32
		c0.069-0.027,0.139-0.057,0.207-0.086c0.306,0.805,1.486,1.406,2.904,1.406c1.648,0,2.986-0.812,2.986-1.813
		c0-0.385-0.201-0.739-0.538-1.034c-0.002,0-0.002-0.003-0.003-0.005c-1.129-1.129-1.244-3.737-1.254-4.063
		c0-0.012,0.002-0.022,0.002-0.034c0-3.414-3.262-6.182-7.286-6.182c-4.024,0-7.285,2.767-7.285,6.181
		c0,2.577-0.781,3.937-1.072,4.358L1.322,14.135z"/>
	
		<ellipse transform="matrix(-0.7477 -0.664 0.664 -0.7477 5.5686 17.1034)" fill="#D5E7C2" cx="6.033" cy="7.494" rx="1.338" ry="1.991"/>
	
		<ellipse transform="matrix(-0.6635 0.7481 -0.7481 -0.6635 15.3469 22.7963)" fill="#D5E7C2" cx="2.547" cy="14.849" rx="0.623" ry="0.891"/>
	
		<ellipse transform="matrix(-0.6635 0.7481 -0.7481 -0.6635 25.5889 18.1901)" fill="#D5E7C2" cx="8.704" cy="14.849" rx="0.623" ry="0.891"/>
	
		<ellipse transform="matrix(-0.6644 0.7474 -0.7474 -0.6644 35.9869 13.5407)" fill="#D5E7C2" cx="14.953" cy="14.851" rx="0.623" ry="0.89"/>
</g>
<g id="Calque_2">
	<g>
		<ellipse fill="#0D140E" cx="12.268" cy="9.385" rx="0.641" ry="0.901"/>
		<ellipse fill="#0D140E" cx="7.516" cy="9.385" rx="0.641" ry="0.901"/>
	</g>
</g>
<path display="none" fill="#A3CE8E" stroke="#6EB860" stroke-width="2" stroke-miterlimit="10" d="M-33.554,44.123
	c-0.075-0.584-0.325-1.148-0.773-1.598l-7.558-7.558c-1.079-1.079-2.828-1.078-3.907,0c-1.078,1.077-1.079,2.827,0,3.907
	l7.559,7.558c0.129,0.129,0.269,0.24,0.414,0.338l0.861,12.499c0,0.975,0.791,1.766,1.766,1.766c0.977,0,1.768-0.791,1.768-1.766
	V44.772C-33.426,44.541-33.474,44.324-33.554,44.123z"/>
<path display="none" fill="#A3CE8E" stroke="#6EB860" stroke-width="2" stroke-miterlimit="10" d="M-21.537,15.312h-10.055
	c-0.003,0-0.003,0-0.005,0h-9.959c-1.05,0-1.901,0.851-1.902,1.903c0.001,1.05,0.852,1.9,1.902,1.9h9.964h0.091h9.964
	c1.052,0,1.903-0.851,1.901-1.902C-19.636,16.162-20.485,15.311-21.537,15.312z"/>
<path display="none" fill="#A3CE8E" stroke="#6EB860" stroke-width="2" stroke-miterlimit="10" d="M-39.257,37.209l1-15.893
	c0-3.865-1.135-7-5-7h-0.402c-3.866,0-7,3.135-7,7l-3.258,12.854c-0.306,0.262-0.7,4.326-0.874,4.72l-2.835,8.644l-0.075,0.16
	l-5.932,13.67c-0.393,0.893,0.012,1.934,0.905,2.327c0.892,0.394,1.935-0.012,2.328-0.903l6.762-12.862
	c0.009-0.021,0.006-0.046,0.014-0.068c0.017-0.032,0.039-0.06,0.054-0.095l3.849-6.332C-49.723,43.43-39.427,43.984-39.257,37.209z"
	/>
<g display="none">
	<g display="inline">
		<circle fill="#CEE3BD" cx="-41.456" cy="21.058" r="1.015"/>
		
			<ellipse transform="matrix(0.5795 -0.815 0.815 0.5795 -34.5344 -25.4038)" fill="#A3CE8E" cx="-41.883" cy="20.762" rx="0.338" ry="0.181"/>
	</g>
	<g display="inline">
		<circle fill="#CEE3BD" cx="-42.309" cy="25.97" r="0.425"/>
		
			<ellipse transform="matrix(0.5844 -0.8115 0.8115 0.5844 -38.6338 -23.7379)" fill="#A3CE8E" cx="-42.49" cy="25.845" rx="0.141" ry="0.075"/>
	</g>
	<g display="inline">
		<circle fill="#CEE3BD" cx="-41.512" cy="27.807" r="0.275"/>
		
			<ellipse transform="matrix(0.582 -0.8132 0.8132 0.582 -39.9492 -22.2613)" fill="#A3CE8E" cx="-41.628" cy="27.728" rx="0.092" ry="0.049"/>
	</g>
	<g display="inline">
		<circle fill="#CEE3BD" cx="-42.445" cy="29.481" r="0.216"/>
		
			<ellipse transform="matrix(0.5726 -0.8199 0.8199 0.5726 -42.3009 -22.3006)" fill="#A3CE8E" cx="-42.537" cy="29.417" rx="0.072" ry="0.038"/>
	</g>
	<g display="inline">
		<circle fill="#CEE3BD" cx="-42.013" cy="30.29" r="0.216"/>
		
			<ellipse transform="matrix(0.5902 -0.8073 0.8073 0.5902 -41.6563 -21.6021)" fill="#A3CE8E" cx="-42.104" cy="30.227" rx="0.072" ry="0.038"/>
	</g>
	<g display="inline">
		<circle fill="#CEE3BD" cx="-42.591" cy="31.101" r="0.216"/>
		
			<ellipse transform="matrix(0.586 -0.8103 0.8103 0.586 -42.8205 -21.7356)" fill="#A3CE8E" cx="-42.681" cy="31.037" rx="0.073" ry="0.038"/>
	</g>
	<g display="inline">
		<circle fill="#CEE3BD" cx="-40.216" cy="23.885" r="0.563"/>
		
			<ellipse transform="matrix(0.5812 -0.8137 0.8137 0.5812 -36.242 -22.9845)" fill="#A3CE8E" cx="-40.453" cy="23.72" rx="0.189" ry="0.1"/>
	</g>
</g>
<g display="none">
	<g display="inline">
		<circle fill="#CEE3BD" cx="-47.193" cy="30.333" r="0.74"/>
		
			<ellipse transform="matrix(0.5796 -0.8149 0.8149 0.5796 -44.5168 -26.0507)" fill="#A3CE8E" cx="-47.505" cy="30.117" rx="0.247" ry="0.131"/>
	</g>
	<g display="inline">
		<circle fill="#CEE3BD" cx="-47.815" cy="33.914" r="0.31"/>
		
			<ellipse transform="matrix(0.5846 -0.8113 0.8113 0.5846 -47.3571 -24.8499)" fill="#A3CE8E" cx="-47.947" cy="33.823" rx="0.102" ry="0.055"/>
	</g>
	<g display="inline">
		<circle fill="#CEE3BD" cx="-47.234" cy="35.254" r="0.201"/>
		
			<ellipse transform="matrix(0.5826 -0.8128 0.8128 0.5826 -48.3553 -23.7673)" fill="#A3CE8E" cx="-47.317" cy="35.195" rx="0.068" ry="0.036"/>
	</g>
	<g display="inline">
		<circle fill="#CEE3BD" cx="-47.914" cy="36.475" r="0.158"/>
		
			<ellipse transform="matrix(0.5772 -0.8166 0.8166 0.5772 -50.0304 -23.7782)" fill="#A3CE8E" cx="-47.979" cy="36.428" rx="0.052" ry="0.028"/>
	</g>
	<g display="inline">
		<circle fill="#CEE3BD" cx="-47.599" cy="37.065" r="0.157"/>
		
			<ellipse transform="matrix(0.594 -0.8045 0.8045 0.594 -49.1343 -23.3151)" fill="#A3CE8E" cx="-47.666" cy="37.021" rx="0.052" ry="0.028"/>
	</g>
	<g display="inline">
		<circle fill="#CEE3BD" cx="-48.02" cy="37.657" r="0.157"/>
		
			<ellipse transform="matrix(0.5956 -0.8033 0.8033 0.5956 -49.6597 -23.4176)" fill="#A3CE8E" cx="-48.086" cy="37.609" rx="0.053" ry="0.028"/>
	</g>
	<g display="inline">
		<circle fill="#CEE3BD" cx="-46.289" cy="32.394" r="0.411"/>
		
			<ellipse transform="matrix(0.5806 -0.8142 0.8142 0.5806 -45.7652 -24.2917)" fill="#A3CE8E" cx="-46.46" cy="32.274" rx="0.138" ry="0.073"/>
	</g>
</g>
<path display="none" fill="#A3CE8E" stroke="#6EB860" stroke-width="2" stroke-miterlimit="10" d="M-51.886,24.391l5.833-5.833
	c0.743-0.743,0.743-1.946,0-2.69c-0.743-0.742-1.947-0.742-2.69,0l-7.11,7.11c-0.389,0.39-0.568,0.903-0.55,1.412
	c-0.019,0.51,0.161,1.024,0.55,1.414l7.11,7.11c0.743,0.744,1.947,0.744,2.69,0c0.743-0.744,0.743-1.947,0-2.689L-51.886,24.391z"/>
<ellipse transform="matrix(-0.9977 0.0675 -0.0675 -0.9977 -108.184 52.44)" display="none" fill="#D5E7C2" cx="-54.979" cy="24.391" rx="0.759" ry="1.291"/>
<path display="none" fill="#A3CE8E" d="M-42.665,18.938c0,1.602-1.298,2.898-2.898,2.898h-0.362c-1.601,0-2.898-1.299-2.898-2.898
	l0,0c0-1.602,1.298-2.898,2.898-2.898h0.362C-43.962,16.039-42.665,17.338-42.665,18.938L-42.665,18.938z"/>
<g display="none">
	
		<circle display="inline" fill="#A3CE8E" stroke="#6EB860" stroke-width="2" stroke-miterlimit="10" cx="-44.458" cy="6.713" r="9.42"/>
	<ellipse display="inline" cx="-42.212" cy="6.119" rx="0.906" ry="1.404"/>
	<ellipse display="inline" cx="-38.045" cy="6.119" rx="0.905" ry="1.404"/>
	<path display="inline" fill="#D5E7C2" d="M-45.932-0.276c0.553,0.49,0.057,1.951-1.107,3.261c-1.163,1.31-2.554,1.976-3.106,1.483
		c-0.554-0.487-0.058-1.948,1.106-3.259C-47.876-0.104-46.485-0.767-45.932-0.276z"/>
</g>
<g display="none">
	<g display="inline">
		<circle fill="#CEE3BD" cx="-39.75" cy="2.614" r="0.443"/>
		
			<ellipse transform="matrix(0.5811 -0.8138 0.8138 0.5811 -18.7526 -31.4631)" fill="#A3CE8E" cx="-39.938" cy="2.484" rx="0.148" ry="0.079"/>
	</g>
	<g display="inline">
		<circle fill="#CEE3BD" cx="-40.123" cy="4.757" r="0.186"/>
		
			<ellipse transform="matrix(0.5853 -0.8108 0.8108 0.5853 -20.4826 -30.6444)" fill="#A3CE8E" cx="-40.201" cy="4.703" rx="0.062" ry="0.033"/>
	</g>
	<g display="inline">
		<circle fill="#CEE3BD" cx="-39.774" cy="5.559" r="0.12"/>
		
			<ellipse transform="matrix(0.5853 -0.8108 0.8108 0.5853 -20.9968 -30.0024)" fill="#A3CE8E" cx="-39.827" cy="5.524" rx="0.04" ry="0.022"/>
	</g>
	<g display="inline">
		<circle fill="#CEE3BD" cx="-40.183" cy="6.289" r="0.094"/>
		
			<ellipse transform="matrix(0.5692 -0.8222 0.8222 0.5692 -22.4746 -30.3729)" fill="#A3CE8E" cx="-40.222" cy="6.261" rx="0.031" ry="0.017"/>
	</g>
	<g display="inline">
		<circle fill="#CEE3BD" cx="-39.994" cy="6.642" r="0.094"/>
		
			<ellipse transform="matrix(0.5975 -0.8019 0.8019 0.5975 -21.4172 -29.438)" fill="#A3CE8E" cx="-40.031" cy="6.614" rx="0.031" ry="0.017"/>
	</g>
	<g display="inline">
		<circle fill="#CEE3BD" cx="-40.246" cy="6.996" r="0.094"/>
		
			<ellipse transform="matrix(0.5963 -0.8027 0.8027 0.5963 -21.8555 -29.5254)" fill="#A3CE8E" cx="-40.285" cy="6.968" rx="0.032" ry="0.015"/>
	</g>
	<g display="inline">
		<circle fill="#CEE3BD" cx="-39.209" cy="3.848" r="0.246"/>
		
			<ellipse transform="matrix(0.5832 -0.8123 0.8123 0.5832 -19.4526 -30.3606)" fill="#A3CE8E" cx="-39.313" cy="3.776" rx="0.082" ry="0.044"/>
	</g>
</g>
<g display="none">
	<g display="inline">
		<circle fill="#CEE3BD" cx="-46.119" cy="7.342" r="0.481"/>
		
			<ellipse transform="matrix(0.5824 0.8129 -0.8129 0.5824 -13.3217 40.3318)" fill="#A3CE8E" cx="-45.915" cy="7.2" rx="0.161" ry="0.086"/>
	</g>
	<g display="inline">
		<circle fill="#CEE3BD" cx="-45.713" cy="9.671" r="0.202"/>
		
			<ellipse transform="matrix(0.5884 0.8086 -0.8086 0.5884 -11.0081 40.851)" fill="#A3CE8E" cx="-45.628" cy="9.613" rx="0.068" ry="0.035"/>
	</g>
	<g display="inline">
		<circle fill="#CEE3BD" cx="-46.092" cy="10.543" r="0.131"/>
		
			<ellipse transform="matrix(0.5875 0.8092 -0.8092 0.5875 -10.4884 41.5869)" fill="#A3CE8E" cx="-46.037" cy="10.505" rx="0.044" ry="0.023"/>
	</g>
	<g display="inline">
		<circle fill="#CEE3BD" cx="-45.649" cy="11.335" r="0.103"/>
		
			<ellipse transform="matrix(0.5696 0.8219 -0.8219 0.5696 -10.3349 42.35)" fill="#A3CE8E" cx="-45.604" cy="11.307" rx="0.034" ry="0.019"/>
	</g>
	<g display="inline">
		<circle fill="#CEE3BD" cx="-45.854" cy="11.72" r="0.103"/>
		
			<ellipse transform="matrix(0.586 0.8103 -0.8103 0.586 -9.4913 41.9604)" fill="#A3CE8E" cx="-45.811" cy="11.691" rx="0.034" ry="0.018"/>
	</g>
	<g display="inline">
		<circle fill="#CEE3BD" cx="-45.58" cy="12.104" r="0.103"/>
		
			<ellipse transform="matrix(0.5911 0.8066 -0.8066 0.5911 -8.8804 41.6688)" fill="#A3CE8E" cx="-45.536" cy="12.076" rx="0.035" ry="0.018"/>
	</g>
	<g display="inline">
		<circle fill="#CEE3BD" cx="-46.707" cy="8.683" r="0.267"/>
		
			<ellipse transform="matrix(0.5779 0.8161 -0.8161 0.5779 -12.6469 41.6589)" fill="#A3CE8E" cx="-46.594" cy="8.604" rx="0.089" ry="0.048"/>
	</g>
</g>
</svg>
