<?xml version="1.0" encoding="utf-8"?>
<!-- Generator: Adobe Illustrator 16.0.0, SVG Export Plug-In . SVG Version: 6.00 Build 0)  -->
<!DOCTYPE svg PUBLIC "-//W3C//DTD SVG 1.1//EN" "http://www.w3.org/Graphics/SVG/1.1/DTD/svg11.dtd">
<svg version="1.1" id="Calque_1" xmlns="http://www.w3.org/2000/svg" xmlns:xlink="http://www.w3.org/1999/xlink" x="0px" y="0px"
	 width="45.75px" height="69.5px" viewBox="0 0 45.75 69.5" enable-background="new 0 0 45.75 69.5" xml:space="preserve">
<path fill="#A3CE8E" stroke="#6EB860" stroke-width="2" stroke-miterlimit="10" d="M31.28,48.607
	c-0.076-0.584-0.326-1.148-0.774-1.597l-7.558-7.558c-1.079-1.079-2.828-1.078-3.907,0c-1.078,1.078-1.079,2.828,0,3.907
	l7.558,7.558c0.129,0.129,0.269,0.24,0.414,0.338l0.862,12.499c0,0.975,0.791,1.766,1.766,1.766c0.976,0,1.767-0.791,1.767-1.766
	V49.257C31.407,49.026,31.36,48.809,31.28,48.607z"/>
<path fill="#A3CE8E" stroke="#6EB860" stroke-width="2" stroke-miterlimit="10" d="M43.296,19.796l-10.055,0
	c-0.002,0-0.003,0-0.005,0l-9.959,0c-1.05,0-1.901,0.851-1.902,1.903c0.001,1.05,0.852,1.901,1.902,1.901h9.964h0.091h9.964
	c1.052,0,1.903-0.851,1.901-1.902C45.198,20.646,44.348,19.795,43.296,19.796z"/>
<path fill="#A3CE8E" stroke="#6EB860" stroke-width="2" stroke-miterlimit="10" d="M25.576,41.693l1-15.892c0-3.866-1.135-7-5-7
	h-0.402c-3.866,0-7,3.134-7,7l-3.258,12.854c-0.306,0.261-0.7,4.325-0.874,4.719l-2.835,8.643l-0.075,0.16l-5.932,13.67
	c-0.393,0.893,0.012,1.935,0.905,2.328c0.892,0.394,1.935-0.012,2.328-0.903l6.762-12.863c0.009-0.021,0.006-0.046,0.014-0.068
	c0.017-0.033,0.039-0.06,0.054-0.095l3.849-6.332C15.11,47.914,25.406,48.469,25.576,41.693z"/>
<g>
	<g>
		<circle fill="#CEE3BD" cx="23.377" cy="25.542" r="1.015"/>
		
			<ellipse transform="matrix(0.815 0.5794 -0.5794 0.815 18.8748 -8.627)" fill="#A3CE8E" cx="22.949" cy="25.248" rx="0.18" ry="0.338"/>
	</g>
	<g>
		<circle fill="#CEE3BD" cx="22.524" cy="30.454" r="0.425"/>
		
			<ellipse transform="matrix(0.8115 0.5843 -0.5843 0.8115 21.9331 -7.3397)" fill="#A3CE8E" cx="22.344" cy="30.33" rx="0.075" ry="0.141"/>
	</g>
	<g>
		<circle fill="#CEE3BD" cx="23.321" cy="32.291" r="0.275"/>
		
			<ellipse transform="matrix(0.8141 0.5808 -0.5808 0.8141 23.0218 -7.4877)" fill="#A3CE8E" cx="23.205" cy="32.211" rx="0.049" ry="0.092"/>
	</g>
	<g>
		<circle fill="#CEE3BD" cx="22.388" cy="33.965" r="0.216"/>
		
			<ellipse transform="matrix(0.818 0.5752 -0.5752 0.818 23.5572 -6.6554)" fill="#A3CE8E" cx="22.297" cy="33.902" rx="0.038" ry="0.072"/>
	</g>
	<g>
		<circle fill="#CEE3BD" cx="22.82" cy="34.774" r="0.216"/>
		
			<ellipse transform="matrix(0.8076 0.5897 -0.5897 0.8076 24.8422 -6.7254)" fill="#A3CE8E" cx="22.729" cy="34.712" rx="0.038" ry="0.072"/>
	</g>
	<g>
		<circle fill="#CEE3BD" cx="22.242" cy="35.585" r="0.216"/>
		
			<ellipse transform="matrix(0.812 0.5836 -0.5836 0.812 24.8966 -6.2506)" fill="#A3CE8E" cx="22.151" cy="35.523" rx="0.038" ry="0.073"/>
	</g>
	<g>
		<circle fill="#CEE3BD" cx="24.617" cy="28.369" r="0.563"/>
		
			<ellipse transform="matrix(0.8144 0.5803 -0.5803 0.8144 20.8927 -8.9133)" fill="#A3CE8E" cx="24.38" cy="28.205" rx="0.1" ry="0.189"/>
	</g>
</g>
<g>
	<g>
		<circle fill="#CEE3BD" cx="17.64" cy="34.817" r="0.74"/>
		
			<ellipse transform="matrix(0.8151 0.5793 -0.5793 0.8151 23.2489 -3.6406)" fill="#A3CE8E" cx="17.328" cy="34.602" rx="0.131" ry="0.247"/>
	</g>
	<g>
		<circle fill="#CEE3BD" cx="17.018" cy="38.398" r="0.31"/>
		
			<ellipse transform="matrix(0.811 0.585 -0.585 0.811 25.6019 -2.6398)" fill="#A3CE8E" cx="16.887" cy="38.309" rx="0.055" ry="0.102"/>
	</g>
	<g>
		<circle fill="#CEE3BD" cx="17.599" cy="39.738" r="0.201"/>
		
			<ellipse transform="matrix(0.8128 0.5825 -0.5825 0.8128 26.3929 -2.7752)" fill="#A3CE8E" cx="17.515" cy="39.68" rx="0.036" ry="0.068"/>
	</g>
	<g>
		<circle fill="#CEE3BD" cx="16.919" cy="40.959" r="0.158"/>
		
			<ellipse transform="matrix(0.8155 0.5787 -0.5787 0.8155 26.7877 -2.205)" fill="#A3CE8E" cx="16.852" cy="40.914" rx="0.028" ry="0.052"/>
	</g>
	<g>
		<circle fill="#CEE3BD" cx="17.234" cy="41.549" r="0.157"/>
		
			<ellipse transform="matrix(0.8042 0.5944 -0.5944 0.8042 28.0314 -2.0767)" fill="#A3CE8E" cx="17.167" cy="41.504" rx="0.028" ry="0.052"/>
	</g>
	<g>
		<circle fill="#CEE3BD" cx="16.813" cy="42.141" r="0.157"/>
		
			<ellipse transform="matrix(0.8072 0.5902 -0.5902 0.8072 28.0739 -1.7697)" fill="#A3CE8E" cx="16.746" cy="42.095" rx="0.028" ry="0.053"/>
	</g>
	<g>
		<circle fill="#CEE3BD" cx="18.544" cy="36.878" r="0.411"/>
		
			<ellipse transform="matrix(0.8142 0.5806 -0.5806 0.8142 24.7558 -3.8364)" fill="#A3CE8E" cx="18.372" cy="36.758" rx="0.073" ry="0.138"/>
	</g>
</g>
<path fill="#A3CE8E" stroke="#6EB860" stroke-width="2" stroke-miterlimit="10" d="M12.947,28.875l5.833-5.833
	c0.743-0.743,0.743-1.947,0-2.69c-0.743-0.743-1.947-0.743-2.69,0l-7.11,7.11c-0.389,0.389-0.568,0.903-0.55,1.412
	c-0.019,0.51,0.161,1.025,0.55,1.414l7.11,7.11c0.743,0.744,1.947,0.744,2.69,0c0.743-0.743,0.743-1.947,0-2.689L12.947,28.875z"/>
<ellipse transform="matrix(-0.0672 -0.9977 0.9977 -0.0672 -18.2929 40.6494)" fill="#D5E7C2" cx="9.856" cy="28.876" rx="1.29" ry="0.759"/>
<path fill="#A3CE8E" d="M22.168,23.422c0,1.601-1.298,2.898-2.898,2.898h-0.362c-1.601,0-2.898-1.298-2.898-2.898l0,0
	c0-1.601,1.298-2.898,2.898-2.898h0.362C20.871,20.524,22.168,21.822,22.168,23.422L22.168,23.422z"/>
<g>
	<circle fill="#A3CE8E" stroke="#6EB860" stroke-width="2" stroke-miterlimit="10" cx="20.375" cy="11.197" r="9.42"/>
	<ellipse cx="22.621" cy="10.603" rx="0.906" ry="1.404"/>
	<ellipse cx="26.788" cy="10.603" rx="0.906" ry="1.404"/>
	<path fill="#D5E7C2" d="M18.901,4.208c0.553,0.49,0.057,1.951-1.107,3.261c-1.163,1.31-2.554,1.976-3.106,1.483
		c-0.554-0.487-0.058-1.948,1.106-3.259C16.957,4.381,18.348,3.718,18.901,4.208z"/>
</g>
<g>
	<g>
		<circle fill="#CEE3BD" cx="25.083" cy="7.098" r="0.443"/>
		
			<ellipse transform="matrix(0.8139 0.5809 -0.5809 0.8139 8.681 -13.1658)" fill="#A3CE8E" cx="24.895" cy="6.97" rx="0.079" ry="0.148"/>
	</g>
	<g>
		<circle fill="#CEE3BD" cx="24.71" cy="9.241" r="0.186"/>
		
			<ellipse transform="matrix(0.8071 0.5904 -0.5904 0.8071 10.1751 -12.7704)" fill="#A3CE8E" cx="24.632" cy="9.187" rx="0.033" ry="0.062"/>
	</g>
	<g>
		<circle fill="#CEE3BD" cx="25.058" cy="10.043" r="0.12"/>
		
			<ellipse transform="matrix(0.8082 0.5889 -0.5889 0.8082 10.6888 -12.8066)" fill="#A3CE8E" cx="25.007" cy="10.008" rx="0.021" ry="0.04"/>
	</g>
	<g>
		<circle fill="#CEE3BD" cx="24.651" cy="10.773" r="0.094"/>
		
			<ellipse transform="matrix(0.8232 0.5677 -0.5677 0.8232 10.4518 -12.0726)" fill="#A3CE8E" cx="24.611" cy="10.746" rx="0.017" ry="0.031"/>
	</g>
	<g>
		<circle fill="#CEE3BD" cx="24.839" cy="11.126" r="0.094"/>
		
			<ellipse transform="matrix(0.8069 0.5907 -0.5907 0.8069 11.3466 -12.5065)" fill="#A3CE8E" cx="24.8" cy="11.099" rx="0.017" ry="0.031"/>
	</g>
	<g>
		<circle fill="#CEE3BD" cx="24.587" cy="11.48" r="0.094"/>
		
			<ellipse transform="matrix(0.8036 0.5952 -0.5952 0.8036 11.6391 -12.3615)" fill="#A3CE8E" cx="24.547" cy="11.453" rx="0.016" ry="0.032"/>
	</g>
	<g>
		<circle fill="#CEE3BD" cx="25.624" cy="8.332" r="0.246"/>
		
			<ellipse transform="matrix(0.8145 0.5802 -0.5802 0.8145 9.5265 -13.274)" fill="#A3CE8E" cx="25.52" cy="8.26" rx="0.044" ry="0.082"/>
	</g>
</g>
<g>
	<g>
		<circle fill="#CEE3BD" cx="18.714" cy="11.826" r="0.481"/>
		
			<ellipse transform="matrix(-0.8132 0.582 -0.582 -0.8132 41.1038 10.1782)" fill="#A3CE8E" cx="18.918" cy="11.687" rx="0.086" ry="0.161"/>
	</g>
	<g>
		<circle fill="#CEE3BD" cx="19.12" cy="14.155" r="0.202"/>
		
			<ellipse transform="matrix(-0.8057 0.5923 -0.5923 -0.8057 43.0271 14.0811)" fill="#A3CE8E" cx="19.204" cy="14.097" rx="0.035" ry="0.067"/>
	</g>
	<g>
		<circle fill="#CEE3BD" cx="18.741" cy="15.027" r="0.131"/>
		
			<ellipse transform="matrix(-0.8101 0.5863 -0.5863 -0.8101 42.8112 16.1121)" fill="#A3CE8E" cx="18.796" cy="14.989" rx="0.023" ry="0.044"/>
	</g>
	<g>
		<circle fill="#CEE3BD" cx="19.184" cy="15.82" r="0.103"/>
		
			<ellipse transform="matrix(-0.8259 0.5637 -0.5637 -0.8259 44.0103 17.9948)" fill="#A3CE8E" cx="19.227" cy="15.791" rx="0.019" ry="0.034"/>
	</g>
	<g>
		<circle fill="#CEE3BD" cx="18.979" cy="16.204" r="0.102"/>
		
			<ellipse transform="matrix(-0.811 0.585 -0.585 -0.811 43.9115 18.1661)" fill="#A3CE8E" cx="19.022" cy="16.175" rx="0.018" ry="0.034"/>
	</g>
	<g>
		<circle fill="#CEE3BD" cx="19.253" cy="16.589" r="0.102"/>
		
			<ellipse transform="matrix(-0.8081 0.589 -0.589 -0.8081 44.6434 18.5765)" fill="#A3CE8E" cx="19.296" cy="16.559" rx="0.018" ry="0.035"/>
	</g>
	<g>
		<circle fill="#CEE3BD" cx="18.126" cy="13.167" r="0.267"/>
		
			<ellipse transform="matrix(-0.8151 0.5793 -0.5793 -0.8151 40.6881 13.1916)" fill="#A3CE8E" cx="18.239" cy="13.089" rx="0.048" ry="0.089"/>
	</g>
</g>
</svg>
