<?xml version="1.0" encoding="utf-8"?>
<!-- Generator: Adobe Illustrator 16.0.0, SVG Export Plug-In . SVG Version: 6.00 Build 0)  -->
<!DOCTYPE svg PUBLIC "-//W3C//DTD SVG 1.1//EN" "http://www.w3.org/Graphics/SVG/1.1/DTD/svg11.dtd">
<svg version="1.1" id="Calque_1" xmlns="http://www.w3.org/2000/svg" xmlns:xlink="http://www.w3.org/1999/xlink" x="0px" y="0px"
	 width="1000px" height="100px" viewBox="0 0 1000 100" enable-background="new 0 0 1000 100" xml:space="preserve">
<path fill="#A3CE8E" stroke="#6DB860" stroke-miterlimit="10" d="M0-0.703V54C1.063,4.333,12.784,10.774,12.784,10.774
	C16.667,15.5,14.5,15.5,18.333,17.5c3.5,2,2.288,5.563,2.288,8.137c0,4.818,2.602,8.723,5.81,8.723c3.209,0,5.81-3.906,5.81-8.723
	c0-3.304-2.781-7.304,3.406-12.582C44,9.5,33.219,1.906,58.956,5C83.912,8,105,8.5,108,5.34S142.5,2,194,8.379S264,11,285.5,5.34
	S349,2,375,8s55,7.5,77,1s14-7,59,2s33,2,43.5-4.5s29,1,38.5,3s8.5,6,16,5.5s1-5.5,19.5-7.5S674,2,707,8s34.5,11,82,2.5S856,2,880,6
	s72.833,0.834,72.833,0.834S972.167,4.667,984.5,11s13.406,21.531,15.5,24.813V-0.703"/>
<path opacity="0.8" fill="#D5E7C2" enable-background="new    " d="M29.108,28.138c-0.555,1.662-1.575,2.82-2.274,2.583
	c-0.703-0.233-0.818-1.772-0.262-3.433c0.554-1.661,1.576-2.82,2.275-2.584C29.547,24.938,29.664,26.475,29.108,28.138z"/>
<path opacity="0.8" fill="#D5E7C2" enable-background="new    " d="M257.5,8.373c-3.524,0.092-6.281-0.852-6.146-2.101
	c0.124-1.255,3.091-2.34,6.612-2.427c3.521-0.094,6.284,0.853,6.151,2.103C263.99,7.196,261.029,8.282,257.5,8.373z"/>
<path opacity="0.8" fill="#D5E7C2" enable-background="new    " d="M755.193,12.913c-3.524,0.092-6.281-0.852-6.146-2.101
	c0.124-1.255,3.091-2.34,6.612-2.427c3.521-0.094,6.284,0.853,6.151,2.103C761.682,11.736,758.721,12.822,755.193,12.913z"/>
<path opacity="0.8" fill="#D5E7C2" enable-background="new    " d="M900.298,5.948c-2.122,0.056-3.782-0.513-3.7-1.265
	c0.074-0.755,1.86-1.408,3.98-1.461c2.12-0.057,3.783,0.514,3.703,1.266C904.205,5.24,902.422,5.894,900.298,5.948z"/>
<path opacity="0.8" fill="#D5E7C2" enable-background="new    " d="M538.193,12.913c-3.524,0.092-6.281-0.852-6.146-2.101
	c0.124-1.255,3.091-2.34,6.612-2.427c3.521-0.094,6.284,0.853,6.151,2.103C544.682,11.736,541.721,12.822,538.193,12.913z"/>
<path opacity="0.8" fill="#D5E7C2" enable-background="new    " d="M428.984,10.644c-3.524,0.092-6.281-0.852-6.146-2.101
	c0.124-1.255,3.091-2.34,6.612-2.427c3.521-0.094,6.284,0.853,6.151,2.103C435.473,9.467,432.512,10.553,428.984,10.644z"/>
<path opacity="0.8" fill="#D5E7C2" enable-background="new    " d="M611.507,11.727c-1.401,0.98-2.884,1.293-3.305,0.696
	c-0.429-0.595,0.366-1.873,1.768-2.852c1.397-0.979,2.884-1.293,3.308-0.696C613.701,9.468,612.908,10.744,611.507,11.727z"/>
<path opacity="0.8" fill="#D5E7C2" enable-background="new    " d="M36.895,8.805c-0.555,1.662-1.575,2.819-2.274,2.582
	c-0.703-0.233-0.818-1.772-0.262-3.433c0.554-1.661,1.576-2.819,2.275-2.584C37.334,5.604,37.451,7.142,36.895,8.805z"/>
<path fill="#A3CE8E" d="M1000.109,34.031c-0.674-0.823-1.31-3.144-1.31-3.144l0.636-31.59h0.674V34.031L1000.109,34.031z"/>
<path fill="#A3CE8E" d="M-0.019,39.625c0.468-0.827,0.569-3.619,0.569-3.619V-0.703h-0.569V39.625L-0.019,39.625z"/>
</svg>
