<?xml version="1.0" encoding="utf-8"?>
<!-- Generator: Adobe Illustrator 16.0.0, SVG Export Plug-In . SVG Version: 6.00 Build 0)  -->
<!DOCTYPE svg PUBLIC "-//W3C//DTD SVG 1.1//EN" "http://www.w3.org/Graphics/SVG/1.1/DTD/svg11.dtd">
<svg version="1.1" id="Calque_1" xmlns="http://www.w3.org/2000/svg" xmlns:xlink="http://www.w3.org/1999/xlink" x="0px" y="0px"
	 width="1000px" height="100px" viewBox="0 0 1000 100" enable-background="new 0 0 1000 100" xml:space="preserve">
<path fill="#A3CE8E" stroke="#6EB860" stroke-width="2" stroke-miterlimit="10" d="M1-1v62.896V65v14.314
	c4-0.121,7.125-3.448,7.125-8.189c0-3.814-0.75-6.75-3.5-9.5C3.323,56.793,1.108,45.691,6.875,27c0,0,9.625-24.667,40.292-22.167
	c0,0,35.833,1,70.163-2.333c18.072-1.754,16.681,17.168,12.215,30.329c-1.425,1.589-2.354,4.127-2.354,6.997
	c0,4.817,4.55,8.382,7.759,8.382s6.385-3.036,6.385-7.854c0-2.354-3.682-8.995-4.691-10.564c-1.141-7.085-3.41-21.667,18.434-21.667
	c23.326,0,15.762,16.262,15.573,21.662c-0.925,1.544-1.491,3.581-1.491,5.821c0,4.817,2.601,8.722,5.81,8.722s5.81-3.904,5.81-8.722
	c0-2.614-0.771-4.953-1.983-6.552c-1.081-5.244-5.098-27.386,4.152-27.386c9.977,0,13.336-1.063,12.561,4.925
	c-1.433,1.588-2.367,4.134-2.367,7.013c0,4.817,3.4,7.529,6.609,7.529s5.011-2.711,5.011-7.529c0-2.71-0.824-5.131-2.116-6.73
	c-0.085-2.019,1.333-6.208,14.61-6.208c16.169,0,28.846,24.076,24.568,33.81c-2.173,1.262-3.716,4.421-3.716,8.128
	c0,4.817,2.602,8.722,5.811,8.722s5.81-3.904,5.81-8.722c0-2.524-0.719-4.791-1.86-6.384C246.45,30.207,239.997,1,248.064,1
	c0,0,21.646-4.818,15.189,15.847c-1.877,1.446-3.164,4.373-3.164,7.757c0,4.817,2.601,8.722,5.81,8.722s5.811-3.904,5.811-8.722
	c0-2.946-0.977-5.546-2.466-7.125c-1.174-3.723-1.907-14.782,30.782-14.782c0,0,46.6-1.947,39.602,32.2
	c-2.335,4.663-3.102,4.339-5.71,11.594c-2.917,8.117,2.47,13.259,7.33,12.443c9.342-1.567,9.187-10.404,8.42-12.443
	c-1.79-4.758-3.586-10.188-4.542-11.741c-2.67-12.876,0.349-32.18,13.524-32.18c0,0,18.708-1.995,19.324,6.503
	c-1.205,1.598-1.969,3.928-1.969,6.531c0,4.817,2.601,8.722,5.81,8.722s5.81-3.904,5.81-8.722c0-2.316-0.604-4.415-1.587-5.977
	c0.336-2.257,2.192-8.124,12.416-8.124c0,0,42.969,0,43.286,29.668c-1.667,1.533-2.782,4.284-2.782,7.433
	c0,4.817,2.602,8.722,5.811,8.722s5.81-3.904,5.81-8.722c0-2.972-0.993-5.593-2.505-7.168c-0.779-4.503-2.637-21.098,12.335-21.098
	c0,0,5.532,0.04,2.44,8.721c-1.735,1.508-2.906,4.318-2.906,7.545c0,4.817,2.601,8.722,5.81,8.722s5.811-3.904,5.811-8.722
	c0-2.639-0.784-4.999-2.019-6.598c0.647-4.88,6.313-29.596,53.732-8.038c-0.858,1.521-1.38,3.485-1.38,5.635
	c0,4.817,2.601,8.722,5.81,8.722c3.208,0,5.81-3.904,5.81-8.722c0-2.205-0.549-4.212-1.448-5.748
	c0.813-1.936,4.669-7.189,22.604-7.189c21.058,0,23.994,21.902,17.827,34.637c-1.587,1.557-2.637,4.243-2.637,7.3
	c0,4.817,2.601,8.722,5.81,8.722s5.81-3.904,5.81-8.722c0-2.834-0.904-5.345-2.3-6.938c-2.075-5.822-10.279-32.323,29.784-34.691
	c31.286-1.849,35.583,1.019,38.911,6.401c2.875,4.5,1.927,5.417,1.927,8.228c0,4.817,2.601,8.722,5.809,8.722
	c3.209,0,5.811-3.904,5.811-8.722c0-3.008,0.079-4.103,2.079-7.353c4.625-4.125-2.375-7.25,12.574-8.66
	c18.133-1.71,13.973,7.391,12.258,12.078c-0.968,1.558-1.563,3.64-1.563,5.937c0,4.817,2.601,8.722,5.81,8.722
	c3.208,0,5.81-3.904,5.81-8.722c0-2.557-0.737-4.85-1.905-6.445c-1.124-3.655-1.299-11.682,18.897-11.682
	c0,0,11.149,0.03,11.219,30.749c-1.142,1.592-1.857,3.857-1.857,6.378c0,4.817,2.602,8.722,5.811,8.722
	c3.208,0,5.809-3.904,5.809-8.722c0-2.909-0.952-5.479-2.41-7.063c-1.282-5.453-5.645-32.441,33.809-32.441
	c0,0,36.28-0.583,36.817,14.077c-1.16,1.594-1.893,3.879-1.893,6.427c0,4.817,2.601,8.722,5.81,8.722c3.208,0,5.81-3.904,5.81-8.722
	c0-2.967-0.988-5.583-2.496-7.159c-0.864-3.304-1.91-13.273,16.989-13.273c21.76,0,19.612,49.925,15.98,59.042
	c-1.759,1.5-2.947,4.332-2.947,7.584c0,4.817,2.602,8.723,5.81,8.723c3.209,0,5.81-3.904,5.81-8.723
	c0-2.961-0.985-5.573-2.488-7.149c-0.825-5.968-8.587-55.814,24.97-55.814c35.423,0,36.414,15.673,33.961,22.927
	c-1.94,1.412-3.282,4.388-3.282,7.844c0,4.817,2.602,8.722,5.811,8.722c3.208,0,5.809-3.904,5.809-8.722
	c0-2.904-0.949-5.469-2.403-7.054C913.719,23.578,907.073,3,941.044,3c25.923,0,14.956,4.5,23.31,8.055
	c6.188,5.279,3.406,9.279,3.406,12.582c0,4.817,2.601,8.722,5.81,8.722c3.208,0,5.81-3.904,5.81-8.722
	c0-2.574-1.212-6.137,2.288-8.137c3.833-2,1.666-2,5.549-6.725c8.889-10.816,9.787,41.494,7.479,52.059
	c-1.067,2.79-1.942,3.973-2.942,6.665c-1.526,4.108,1.458,10.5,7.333,11.5L999,59.5v-2.514V-1"/>
<path opacity="0.8" fill="#D5E7C2" enable-background="new    " d="M130.721,40.387c0.7-0.236,1.721,0.922,2.276,2.584
	c0.556,1.66,0.44,3.199-0.263,3.432c-0.698,0.238-1.718-0.92-2.273-2.582C129.903,42.156,130.021,40.62,130.721,40.387z"/>
<path opacity="0.8" fill="#D5E7C2" enable-background="new    " d="M172.703,36.587c0.699-0.236,1.721,0.923,2.275,2.585
	c0.557,1.66,0.441,3.198-0.262,3.432c-0.699,0.237-1.718-0.92-2.274-2.582C171.884,38.358,172.002,36.822,172.703,36.587z"/>
<path opacity="0.8" fill="#D5E7C2" enable-background="new    " d="M195.453,12.548c0.699-0.236,1.721,0.923,2.275,2.585
	c0.557,1.66,0.441,3.198-0.262,3.432c-0.699,0.237-1.718-0.92-2.274-2.582C194.634,14.319,194.752,12.783,195.453,12.548z"/>
<path opacity="0.8" fill="#D5E7C2" enable-background="new    " d="M240.953,43.953c0.699-0.236,1.721,0.923,2.275,2.585
	c0.557,1.66,0.441,3.198-0.262,3.432c-0.699,0.237-1.718-0.92-2.274-2.582C240.134,45.724,240.252,44.187,240.953,43.953z"/>
<path opacity="0.8" fill="#D5E7C2" enable-background="new    " d="M337,48.561c0.7-0.236,1.722,0.923,2.276,2.585
	c0.556,1.66,0.441,3.198-0.262,3.433c-0.699,0.236-1.719-0.92-2.274-2.582C336.181,50.332,336.3,48.795,337,48.561z"/>
<path opacity="0.8" fill="#D5E7C2" enable-background="new    " d="M378.577,15.087c0.7-0.236,1.722,0.923,2.276,2.585
	c0.556,1.66,0.441,3.198-0.262,3.432c-0.699,0.237-1.719-0.92-2.274-2.582C377.759,16.858,377.877,15.322,378.577,15.087z"/>
<path opacity="0.8" fill="#D5E7C2" enable-background="new    " d="M442.952,40.626c0.7-0.236,1.722,0.923,2.276,2.585
	c0.556,1.66,0.441,3.198-0.262,3.432c-0.699,0.237-1.719-0.92-2.274-2.582C442.134,42.397,442.252,40.861,442.952,40.626z"/>
<path opacity="0.8" fill="#D5E7C2" enable-background="new    " d="M463.452,28.626c0.7-0.236,1.722,0.923,2.276,2.585
	c0.556,1.66,0.441,3.198-0.262,3.432c-0.699,0.237-1.719-0.92-2.274-2.582C462.634,30.397,462.752,28.861,463.452,28.626z"/>
<path opacity="0.8" fill="#D5E7C2" enable-background="new    " d="M524.952,20.376c0.699-0.236,1.722,0.923,2.275,2.585
	c0.557,1.66,0.441,3.198-0.262,3.432c-0.699,0.237-1.72-0.92-2.274-2.582C524.135,22.147,524.252,20.611,524.952,20.376z"/>
<path opacity="0.8" fill="#D5E7C2" enable-background="new    " d="M572.202,48.626c0.699-0.236,1.722,0.923,2.275,2.584
	c0.557,1.66,0.441,3.199-0.262,3.433c-0.699,0.237-1.72-0.92-2.274-2.582C571.385,50.397,571.502,48.861,572.202,48.626z"/>
<path opacity="0.8" fill="#D5E7C2" enable-background="new    " d="M652.952,17.126c0.699-0.236,1.722,0.923,2.275,2.584
	c0.557,1.66,0.441,3.199-0.262,3.432c-0.699,0.238-1.72-0.92-2.274-2.582C652.135,18.897,652.252,17.361,652.952,17.126z"/>
<path opacity="0.8" fill="#D5E7C2" enable-background="new    " d="M690.702,23.916c0.699-0.236,1.722,0.923,2.275,2.584
	c0.557,1.66,0.441,3.199-0.262,3.432c-0.699,0.238-1.72-0.92-2.274-2.582C689.885,25.687,690.002,24.15,690.702,23.916z"/>
<path opacity="0.8" fill="#D5E7C2" enable-background="new    " d="M727.702,42.549c0.699-0.236,1.722,0.923,2.275,2.584
	c0.557,1.66,0.441,3.199-0.262,3.432c-0.699,0.238-1.72-0.92-2.274-2.582C726.885,44.32,727.002,42.783,727.702,42.549z"/>
<path opacity="0.8" fill="#D5E7C2" enable-background="new    " d="M805.118,20.877c0.699-0.236,1.722,0.923,2.275,2.584
	c0.557,1.66,0.441,3.199-0.262,3.432c-0.699,0.238-1.72-0.92-2.274-2.582C804.301,22.648,804.418,21.111,805.118,20.877z"/>
<path opacity="0.8" fill="#D5E7C2" enable-background="new    " d="M845.371,67.32c0.699-0.236,1.722,0.923,2.275,2.584
	c0.557,1.66,0.441,3.199-0.262,3.432c-0.699,0.238-1.72-0.92-2.274-2.582C844.554,69.092,844.671,67.555,845.371,67.32z"/>
<path opacity="0.8" fill="#D5E7C2" enable-background="new    " d="M909.405,36.131c0.699-0.236,1.722,0.923,2.275,2.584
	c0.557,1.66,0.441,3.199-0.262,3.432c-0.699,0.238-1.72-0.92-2.274-2.582C908.587,37.902,908.704,36.365,909.405,36.131z"/>
<path opacity="0.8" fill="#D5E7C2" enable-background="new    " d="M971.154,22.704c0.699-0.236,1.722,0.923,2.275,2.584
	c0.557,1.66,0.441,3.199-0.262,3.432c-0.699,0.238-1.72-0.92-2.274-2.582C970.336,24.475,970.453,22.938,971.154,22.704z"/>
<path opacity="0.8" fill="#D5E7C2" enable-background="new    " d="M963.366,3.371c0.699-0.236,1.722,0.923,2.275,2.584
	c0.557,1.66,0.441,3.199-0.262,3.432c-0.699,0.238-1.72-0.92-2.274-2.582C962.549,5.142,962.666,3.604,963.366,3.371z"/>
<path opacity="0.8" fill="#D5E7C2" enable-background="new    " d="M995.077,64.838c0.699-0.236,1.722,0.923,2.275,2.584
	c0.557,1.66,0.441,3.199-0.262,3.432c-0.699,0.238-1.72-0.92-2.274-2.582C994.26,66.609,994.377,65.072,995.077,64.838z"/>
<path opacity="0.8" fill="#D5E7C2" enable-background="new    " d="M263.703,24.993c0.699-0.236,1.721,0.923,2.275,2.585
	c0.557,1.66,0.441,3.198-0.262,3.432c-0.699,0.237-1.718-0.92-2.274-2.582C262.884,26.764,263.002,25.227,263.703,24.993z"/>
<rect x="0" fill="#A3CE8E" width="2" height="78"/>
<rect x="998" fill="#A3CE8E" width="2" height="78"/>
<path fill="none" stroke="#6EB860" stroke-width="2" stroke-miterlimit="10" d="M0,78"/>
</svg>
