<?xml version="1.0" encoding="utf-8"?>
<!-- Generator: Adobe Illustrator 16.0.0, SVG Export Plug-In . SVG Version: 6.00 Build 0)  -->
<!DOCTYPE svg PUBLIC "-//W3C//DTD SVG 1.1//EN" "http://www.w3.org/Graphics/SVG/1.1/DTD/svg11.dtd">
<svg version="1.1" id="Calque_1" xmlns="http://www.w3.org/2000/svg" xmlns:xlink="http://www.w3.org/1999/xlink" x="0px" y="0px"
	 width="1000px" height="100px" viewBox="0 0 1000 100" enable-background="new 0 0 1000 100" xml:space="preserve">
<path fill="#A3CE8E" stroke="#6DB860" stroke-miterlimit="10" d="M1000,100V48c-1.063,49.667-12.784,43.226-12.784,43.226
	c-3.883-4.726-1.716-4.726-5.549-6.726c-3.5-2-2.288-5.563-2.288-8.137c0-4.818-2.602-8.723-5.81-8.723
	c-3.209,0-5.81,3.906-5.81,8.723c0,3.304,2.781,7.304-3.406,12.582C956,92.5,966.781,100.094,941.044,97
	C916.088,94,895,93.5,892,96.66s-34.5,3.34-86-3.039S736,91,714.5,96.66S651,100,625,94s-55-7.5-77-1s-14,7-59-2s-33-2-43.5,4.5
	s-29-1-38.5-3s-8.5-6-16-5.5s-1,5.5-19.5,7.5S326,100,293,94s-34.5-11-82-2.5s-67,8.5-91,4.5s-72.833-0.834-72.833-0.834
	S27.833,97.333,15.5,91S1,69.447,0,69.938V100"/>
<path opacity="0.8" fill="#D5E7C2" enable-background="new    " d="M970.893,73.862c0.555-1.662,1.575-2.82,2.274-2.583
	c0.703,0.233,0.818,1.772,0.262,3.433c-0.554,1.661-1.576,2.82-2.275,2.584C970.453,77.063,970.336,75.525,970.893,73.862z"/>
<path opacity="0.8" fill="#D5E7C2" enable-background="new    " d="M742.5,93.627c3.524-0.092,6.281,0.852,6.146,2.101
	c-0.124,1.255-3.091,2.34-6.612,2.427c-3.521,0.094-6.284-0.853-6.151-2.103C736.011,94.804,738.972,93.718,742.5,93.627z"/>
<path opacity="0.8" fill="#D5E7C2" enable-background="new    " d="M244.808,89.087c3.524-0.092,6.281,0.852,6.146,2.101
	c-0.124,1.255-3.091,2.34-6.612,2.427c-3.521,0.094-6.284-0.853-6.151-2.103C238.319,90.264,241.28,89.178,244.808,89.087z"/>
<path opacity="0.8" fill="#D5E7C2" enable-background="new    " d="M99.702,96.052c2.122-0.056,3.782,0.513,3.701,1.265
	c-0.075,0.755-1.861,1.408-3.981,1.461c-2.12,0.057-3.784-0.514-3.704-1.266C95.796,96.76,97.578,96.106,99.702,96.052z"/>
<path opacity="0.8" fill="#D5E7C2" enable-background="new    " d="M461.808,89.087c3.524-0.092,6.281,0.852,6.146,2.101
	c-0.124,1.255-3.091,2.34-6.612,2.427c-3.521,0.094-6.284-0.853-6.151-2.103C455.319,90.264,458.28,89.178,461.808,89.087z"/>
<path opacity="0.8" fill="#D5E7C2" enable-background="new    " d="M571.017,91.356c3.524-0.092,6.281,0.852,6.146,2.101
	c-0.124,1.255-3.091,2.34-6.612,2.427c-3.521,0.094-6.284-0.853-6.151-2.103C564.528,92.533,567.489,91.447,571.017,91.356z"/>
<path opacity="0.8" fill="#D5E7C2" enable-background="new    " d="M388.493,90.273c1.401-0.98,2.883-1.293,3.305-0.696
	c0.428,0.595-0.366,1.873-1.768,2.852c-1.398,0.979-2.884,1.293-3.307,0.696C386.3,92.532,387.092,91.256,388.493,90.273z"/>
<path opacity="0.8" fill="#D5E7C2" enable-background="new    " d="M963.106,93.195c0.555-1.662,1.575-2.819,2.274-2.582
	c0.703,0.233,0.818,1.772,0.262,3.433c-0.554,1.661-1.576,2.819-2.275,2.584C962.666,96.396,962.549,94.858,963.106,93.195z"/>
<path fill="#A3CE8E" d="M0,71c0.563,0.688,1.094,2.625,1.094,2.625L0.563,100H0V71L0,71z"/>
<path fill="#A3CE8E" d="M1000,62.375c-0.437,0.771-0.531,3.377-0.531,3.377V100H1000V62.375L1000,62.375z"/>
</svg>
