<?xml version="1.0" encoding="utf-8"?>
<!-- Generator: Adobe Illustrator 16.0.0, SVG Export Plug-In . SVG Version: 6.00 Build 0)  -->
<!DOCTYPE svg PUBLIC "-//W3C//DTD SVG 1.1//EN" "http://www.w3.org/Graphics/SVG/1.1/DTD/svg11.dtd">
<svg version="1.1" id="Calque_1" xmlns="http://www.w3.org/2000/svg" xmlns:xlink="http://www.w3.org/1999/xlink" x="0px" y="0px"
	 width="1000px" height="100px" viewBox="0 0 1000 100" enable-background="new 0 0 1000 100" xml:space="preserve">
<path fill="#A3CE8E" stroke="#6EB860" stroke-width="2" stroke-miterlimit="10" d="M1-1v62.896V65v14.314
	c4-0.121,7.125-3.448,7.125-8.189c0-3.814-0.75-6.75-3.5-9.5C3.323,56.793,1.108,45.691,6.875,27c0,0,9.625-24.667,40.292-22.167
	c0,0,55.803,1,90.133-2.333c18.072-1.754,16.682,17.168,12.215,30.329c-1.425,1.589-2.354,4.127-2.354,6.997
	c0,4.817,4.55,8.382,7.759,8.382s6.385-3.036,6.385-7.854c0-2.354-3.682-8.995-4.69-10.564c-1.142-7.085-3.41-21.667,18.434-21.667
	c23.326,0,15.762,16.262,15.573,21.662c-0.925,1.544-1.491,3.581-1.491,5.821c0,4.817,2.602,8.722,5.811,8.722
	s5.81-3.904,5.81-8.722c0-2.614-0.771-4.953-1.983-6.552c-1.081-5.244-5.098-27.386,4.152-27.386c9.977,0,10.353-1.169,9.578,4.819
	c-1.434,1.588-2.367,4.134-2.367,7.013c0,4.817,3.399,7.529,6.608,7.529s5.012-2.711,5.012-7.529c0-2.71-0.824-5.131-2.116-6.73
	c-0.085-2.019-5.153-6.102,8.123-6.102c16.169,0,18.347,24.076,14.068,33.81c-2.173,1.262-3.716,4.421-3.716,8.128
	c0,4.817,2.602,8.722,5.811,8.722s5.811-3.904,5.811-8.722c0-2.524-0.719-4.791-1.86-6.384C246.45,30.207,239.997,1,248.064,1
	c0,0,21.646-4.818,15.188,15.847c-1.877,1.446-3.164,4.373-3.164,7.757c0,4.817,2.602,8.722,5.811,8.722s5.811-3.904,5.811-8.722
	c0-2.946-0.977-5.546-2.466-7.125c-1.174-3.723-1.907-14.782,30.782-14.782c0,0,46.6-1.947,39.602,32.2
	c-2.335,4.663-3.102,4.339-5.71,11.594c-2.917,8.116,2.471,13.259,7.33,12.442c9.342-1.566,9.188-10.404,8.42-12.442
	c-1.79-4.758-3.586-10.188-4.542-11.741c-2.67-12.876,0.35-32.18,13.524-32.18c0,0,18.708-1.995,19.324,6.503
	c-1.205,1.598-1.97,3.928-1.97,6.531c0,4.817,2.602,8.722,5.811,8.722s5.81-3.904,5.81-8.722c0-2.316-0.604-4.415-1.587-5.977
	c0.336-2.257,2.192-8.124,12.416-8.124c0,0,42.97,0,43.286,29.668c-1.667,1.533-2.781,4.284-2.781,7.433
	c0,4.817,2.602,8.722,5.811,8.722s5.81-3.904,5.81-8.722c0-2.972-0.993-5.593-2.505-7.168c-0.778-4.503-2.637-21.098,12.335-21.098
	c0,0,5.532,0.04,2.44,8.721c-1.735,1.508-2.906,4.318-2.906,7.545c0,4.817,2.602,8.722,5.811,8.722s5.811-3.904,5.811-8.722
	c0-2.639-0.784-4.999-2.02-6.598c0.647-4.88,6.313-29.596,53.732-8.038c-0.857,1.521-1.38,3.485-1.38,5.635
	c0,4.817,2.601,8.722,5.81,8.722c3.208,0,5.811-3.904,5.811-8.722c0-2.205-0.549-4.212-1.448-5.748
	c0.813-1.936,4.669-7.189,22.604-7.189c21.058,0,23.994,21.902,17.826,34.637c-1.587,1.557-2.637,4.243-2.637,7.3
	c0,4.817,2.602,8.722,5.811,8.722s5.81-3.904,5.81-8.722c0-2.834-0.904-5.345-2.3-6.938c-2.075-5.822-10.279-32.323,29.784-34.691
	c31.286-1.849,35.583,1.019,38.911,6.401c2.875,4.5,1.927,5.417,1.927,8.228c0,4.817,2.601,8.722,5.809,8.722
	c3.209,0,5.812-3.904,5.812-8.722c0-3.008,0.079-4.103,2.079-7.353c4.625-4.125-2.375-7.25,12.573-8.66
	c18.133-1.71,13.974,7.391,12.258,12.078c-0.968,1.558-1.563,3.64-1.563,5.937c0,4.817,2.601,8.722,5.81,8.722
	c3.208,0,5.811-3.904,5.811-8.722c0-2.557-0.737-4.85-1.905-6.445c-1.124-3.655-1.299-11.682,18.897-11.682
	c0,0,11.148,0.03,11.219,30.749c-1.143,1.592-1.857,3.857-1.857,6.378c0,4.817,2.603,8.722,5.812,8.722
	c3.208,0,5.809-3.904,5.809-8.722c0-2.909-0.952-5.479-2.41-7.063c-1.281-5.453-5.645-32.441,33.81-32.441
	c0,0,36.28-0.583,36.816,14.077c-1.159,1.594-1.893,3.879-1.893,6.427c0,4.817,2.601,8.722,5.81,8.722
	c3.208,0,5.811-3.904,5.811-8.722c0-2.967-0.988-5.583-2.496-7.159c-0.864-3.304-1.91-13.273,16.989-13.273
	c21.76,0,19.611,49.925,15.979,59.042c-1.759,1.5-2.947,4.332-2.947,7.584c0,4.817,2.603,8.723,5.811,8.723
	c3.209,0,5.81-3.903,5.81-8.723c0-2.961-0.984-5.572-2.487-7.148c-0.825-5.969-8.587-55.814,24.97-55.814
	c35.423,0,36.414,15.673,33.961,22.927c-1.94,1.412-3.282,4.388-3.282,7.844c0,4.817,2.603,8.722,5.812,8.722
	c3.208,0,5.809-3.904,5.809-8.722c0-2.904-0.949-5.469-2.403-7.054C913.719,23.578,907.073,3,941.045,3
	c25.923,0,14.955,4.5,23.31,8.055c6.188,5.279,3.406,9.279,3.406,12.582c0,4.817,2.601,8.722,5.81,8.722
	c3.208,0,5.811-3.904,5.811-8.722c0-2.574-1.213-6.137,2.287-8.137c3.834-2,1.666-2,5.55-6.725
	c8.889-10.816,9.787,41.494,7.479,52.059c-1.066,2.79-1.941,3.973-2.941,6.665c-1.526,4.108,1.458,10.5,7.333,11.5L999,59.5v-2.514
	V-1"/>
<path opacity="0.8" fill="#D5E7C2" enable-background="new    " d="M150.691,40.387c0.699-0.236,1.721,0.922,2.275,2.584
	c0.557,1.66,0.44,3.199-0.263,3.432c-0.698,0.238-1.718-0.92-2.273-2.582C149.873,42.156,149.991,40.62,150.691,40.387z"/>
<path opacity="0.8" fill="#D5E7C2" enable-background="new    " d="M192.673,36.587c0.699-0.236,1.721,0.923,2.275,2.585
	c0.557,1.66,0.44,3.198-0.263,3.432c-0.698,0.237-1.718-0.92-2.273-2.582C191.853,38.358,191.971,36.822,192.673,36.587z"/>
<path opacity="0.8" fill="#D5E7C2" enable-background="new    " d="M212.439,12.442c0.699-0.236,1.721,0.923,2.275,2.585
	c0.557,1.66,0.44,3.198-0.263,3.432c-0.698,0.237-1.718-0.92-2.273-2.582C211.62,14.213,211.738,12.677,212.439,12.442z"/>
<path opacity="0.8" fill="#D5E7C2" enable-background="new    " d="M240.953,43.953c0.699-0.236,1.721,0.923,2.275,2.585
	c0.557,1.66,0.44,3.198-0.263,3.432c-0.698,0.237-1.718-0.92-2.273-2.582C240.134,45.724,240.252,44.187,240.953,43.953z"/>
<path opacity="0.8" fill="#D5E7C2" enable-background="new    " d="M337,48.561c0.7-0.236,1.723,0.923,2.276,2.585
	c0.556,1.66,0.44,3.197-0.262,3.433c-0.699,0.235-1.72-0.92-2.274-2.582C336.181,50.332,336.3,48.795,337,48.561z"/>
<path opacity="0.8" fill="#D5E7C2" enable-background="new    " d="M378.577,15.087c0.7-0.236,1.722,0.923,2.276,2.585
	c0.556,1.66,0.44,3.198-0.263,3.432c-0.698,0.237-1.719-0.92-2.273-2.582C377.759,16.858,377.877,15.322,378.577,15.087z"/>
<path opacity="0.8" fill="#D5E7C2" enable-background="new    " d="M442.952,40.626c0.7-0.236,1.723,0.923,2.276,2.585
	c0.556,1.66,0.441,3.198-0.262,3.432c-0.699,0.237-1.72-0.92-2.274-2.582C442.135,42.397,442.253,40.861,442.952,40.626z"/>
<path opacity="0.8" fill="#D5E7C2" enable-background="new    " d="M463.452,28.626c0.7-0.236,1.723,0.923,2.276,2.585
	c0.556,1.66,0.441,3.198-0.262,3.432c-0.699,0.237-1.72-0.92-2.274-2.582C462.635,30.397,462.753,28.861,463.452,28.626z"/>
<path opacity="0.8" fill="#D5E7C2" enable-background="new    " d="M524.952,20.376c0.699-0.236,1.723,0.923,2.275,2.585
	c0.557,1.66,0.441,3.198-0.262,3.432c-0.699,0.237-1.721-0.92-2.274-2.582C524.135,22.147,524.253,20.611,524.952,20.376z"/>
<path opacity="0.8" fill="#D5E7C2" enable-background="new    " d="M572.202,48.626c0.699-0.236,1.723,0.923,2.275,2.584
	c0.557,1.66,0.441,3.199-0.262,3.433c-0.699,0.237-1.721-0.92-2.274-2.582C571.385,50.397,571.503,48.861,572.202,48.626z"/>
<path opacity="0.8" fill="#D5E7C2" enable-background="new    " d="M652.952,17.126c0.699-0.236,1.723,0.923,2.275,2.584
	c0.557,1.66,0.441,3.199-0.262,3.432c-0.699,0.238-1.721-0.92-2.274-2.582C652.135,18.897,652.253,17.361,652.952,17.126z"/>
<path opacity="0.8" fill="#D5E7C2" enable-background="new    " d="M690.702,23.916c0.699-0.236,1.723,0.923,2.275,2.584
	c0.557,1.66,0.441,3.199-0.262,3.432c-0.699,0.238-1.721-0.92-2.274-2.582C689.885,25.687,690.003,24.15,690.702,23.916z"/>
<path opacity="0.8" fill="#D5E7C2" enable-background="new    " d="M727.702,42.549c0.699-0.236,1.723,0.923,2.275,2.584
	c0.557,1.66,0.441,3.199-0.262,3.432c-0.699,0.238-1.721-0.92-2.274-2.582C726.885,44.32,727.003,42.783,727.702,42.549z"/>
<path opacity="0.8" fill="#D5E7C2" enable-background="new    " d="M805.118,20.877c0.699-0.236,1.723,0.923,2.275,2.584
	c0.557,1.66,0.44,3.199-0.262,3.432c-0.699,0.238-1.721-0.92-2.274-2.582C804.302,22.648,804.419,21.111,805.118,20.877z"/>
<path opacity="0.8" fill="#D5E7C2" enable-background="new    " d="M845.371,67.32c0.699-0.236,1.723,0.923,2.275,2.584
	c0.557,1.66,0.441,3.199-0.262,3.432c-0.699,0.238-1.721-0.92-2.274-2.582C844.554,69.092,844.672,67.555,845.371,67.32z"/>
<path opacity="0.8" fill="#D5E7C2" enable-background="new    " d="M909.405,36.131c0.699-0.236,1.723,0.923,2.275,2.584
	c0.557,1.66,0.44,3.199-0.262,3.432c-0.699,0.238-1.721-0.92-2.274-2.582C908.588,37.902,908.704,36.365,909.405,36.131z"/>
<path opacity="0.8" fill="#D5E7C2" enable-background="new    " d="M971.154,22.704c0.699-0.236,1.723,0.923,2.275,2.584
	c0.557,1.66,0.44,3.199-0.262,3.432c-0.699,0.238-1.721-0.92-2.274-2.582C970.336,24.475,970.453,22.938,971.154,22.704z"/>
<path opacity="0.8" fill="#D5E7C2" enable-background="new    " d="M963.366,3.371c0.699-0.236,1.723,0.923,2.275,2.584
	c0.557,1.66,0.44,3.199-0.262,3.432c-0.699,0.238-1.721-0.92-2.274-2.582C962.55,5.142,962.666,3.604,963.366,3.371z"/>
<path opacity="0.8" fill="#D5E7C2" enable-background="new    " d="M995.077,64.838c0.699-0.236,1.723,0.924,2.275,2.584
	c0.557,1.66,0.44,3.199-0.262,3.432c-0.699,0.238-1.72-0.92-2.274-2.582C994.26,66.609,994.377,65.072,995.077,64.838z"/>
<path opacity="0.8" fill="#D5E7C2" enable-background="new    " d="M263.703,24.993c0.699-0.236,1.721,0.923,2.275,2.585
	c0.557,1.66,0.44,3.198-0.263,3.432c-0.698,0.237-1.718-0.92-2.273-2.582C262.884,26.764,263.002,25.227,263.703,24.993z"/>
<rect x="0" fill="#A3CE8E" width="2" height="78"/>
<rect x="998" fill="#A3CE8E" width="2" height="78"/>
<path fill="none" stroke="#6EB860" stroke-width="2" stroke-miterlimit="10" d="M0,78"/>
</svg>
