<?xml version="1.0" encoding="utf-8"?>
<!-- Generator: Adobe Illustrator 16.0.0, SVG Export Plug-In . SVG Version: 6.00 Build 0)  -->
<!DOCTYPE svg PUBLIC "-//W3C//DTD SVG 1.1//EN" "http://www.w3.org/Graphics/SVG/1.1/DTD/svg11.dtd">
<svg version="1.1" id="Calque_1" xmlns="http://www.w3.org/2000/svg" xmlns:xlink="http://www.w3.org/1999/xlink" x="0px" y="0px"
	 width="1000px" height="100px" viewBox="0 0 1000 100" enable-background="new 0 0 1000 100" xml:space="preserve">
<path fill="#A3CE8E" stroke="#6EB860" stroke-width="2" stroke-miterlimit="10" d="M1-1v62.896V65v14.314
	c4-0.121,7.125-3.448,7.125-8.189c0-3.815-0.75-6.75-3.5-9.5C3.323,56.793,1.108,45.691,6.875,27c0,0,7.004-26.727,40.814-26.238
	C71.155,1.101,63.507,18.02,59.604,34.598c-1.43,1.588-2.362,4.131-2.362,7.007c0,4.817,2.602,8.722,5.81,8.722
	s5.81-3.905,5.81-8.722c0-1.867-0.394-3.594-1.06-5.012c-0.176-0.954-6.338-35.08,12.054-35.08c17.912,0,20.133,0.934,17.503,9.328
	c-1.308,1.599-2.145,4.034-2.145,6.764c0,4.817,2.601,8.722,5.81,8.722s5.81-3.905,5.81-8.722c0-2.946-0.977-5.546-2.467-7.125
	c-0.88-2.886-0.524-7.979,12.963-7.979c18.158,0,9.684,24.947,5.218,38.108c-1.425,1.589-2.353,4.127-2.353,6.997
	c0,4.817,2.601,8.722,5.81,8.722s5.81-3.904,5.81-8.722c0-2.354-0.624-4.486-1.634-6.055c-1.141-7.085-4.052-34.05,17.792-34.05
	c23.326,0,22.867,16.885,22.678,22.284c-0.925,1.544-1.492,3.581-1.492,5.821c0,4.817,2.601,8.722,5.81,8.722s5.81-3.904,5.81-8.722
	c0-2.614-0.771-4.953-1.984-6.552c-1.081-5.244-5.097-27.386,4.153-27.386c9.976,0,13.335-1.063,12.56,4.925
	c-1.433,1.588-2.367,4.134-2.367,7.013c0,4.817,2.601,8.722,5.81,8.722s5.81-3.904,5.81-8.722c0-2.71-0.824-5.131-2.116-6.73
	c-0.085-2.019,1.333-6.208,14.61-6.208c16.169,0,28.846,24.076,24.569,33.81c-2.173,1.262-3.716,4.421-3.716,8.128
	c0,4.817,2.601,8.722,5.81,8.722s5.81-3.904,5.81-8.722c0-2.524-0.719-4.791-1.861-6.384C246.45,30.207,239.997,1,248.064,1
	c0,0,21.646-4.818,15.189,15.847c-1.877,1.446-3.164,4.373-3.164,7.757c0,4.817,2.601,8.722,5.81,8.722s5.81-3.904,5.81-8.722
	c0-2.946-0.976-5.546-2.466-7.125c-1.173-3.723-1.907-14.782,30.783-14.782c0,0,39.023,4.285,39.765,28.662
	c-1.083,1.584-1.759,3.794-1.759,6.245c0,4.817,2.601,8.722,5.81,8.722s5.81-3.904,5.81-8.722c0-2.281-0.588-4.352-1.544-5.906
	c-0.612-5.297-2.634-29.128,10.542-29.128c0,0,18.708-1.995,19.324,6.503c-1.205,1.598-1.969,3.928-1.969,6.531
	c0,4.817,2.601,8.722,5.81,8.722s5.81-3.904,5.81-8.722c0-2.316-0.605-4.415-1.587-5.977c0.336-2.257,2.192-8.124,12.416-8.124
	c0,0,42.968,0,43.286,29.668c-1.667,1.533-2.782,4.284-2.782,7.433c0,4.817,2.601,8.722,5.81,8.722s5.81-3.904,5.81-8.722
	c0-2.972-0.993-5.593-2.505-7.168c-0.779-4.503-2.637-21.098,12.335-21.098c0,0,5.532,0.04,2.44,8.721
	c-1.735,1.508-2.906,4.318-2.906,7.545c0,4.817,2.601,8.722,5.81,8.722c3.209,0,5.81-3.904,5.81-8.722
	c0-2.639-0.784-4.999-2.018-6.598c0.647-4.88,6.313-29.596,53.732-8.038c-0.858,1.521-1.38,3.485-1.38,5.635
	c0,4.817,2.601,8.722,5.81,8.722c3.208,0,5.809-3.904,5.809-8.722c0-2.205-0.549-4.212-1.448-5.748
	c0.813-1.936,4.669-7.189,22.604-7.189c21.057,0,23.994,21.902,17.827,34.637c-1.587,1.557-2.637,4.243-2.637,7.3
	c0,4.817,2.601,8.722,5.81,8.722c3.208,0,5.809-3.904,5.809-8.722c0-2.834-0.904-5.345-2.3-6.938
	c-2.075-5.822-10.349-34.691,29.784-34.691c43.311,0,44.94,1.26,43.103,7.73c-1.375,1.595-2.265,4.088-2.265,6.899
	c0,4.817,2.601,8.722,5.809,8.722c3.209,0,5.81-3.904,5.81-8.722c0-3.008-1.016-5.661-2.559-7.229
	C658.342,10,658.574,3.59,676.075,3.59c18.213,0,13.972,7.391,12.257,12.078c-0.967,1.558-1.563,3.64-1.563,5.937
	c0,4.817,2.601,8.722,5.81,8.722c3.208,0,5.809-3.904,5.809-8.722c0-2.557-0.737-4.85-1.905-6.445
	c-1.124-3.655-1.299-11.682,18.897-11.682c0,0,11.15,0.03,11.219,30.749c-1.141,1.592-1.857,3.857-1.857,6.378
	c0,4.817,2.601,8.722,5.81,8.722c3.208,0,5.809-3.904,5.809-8.722c0-2.909-0.952-5.479-2.41-7.063
	c-1.283-5.453-5.645-32.441,33.808-32.441c0,0,36.28-0.583,36.818,14.077c-1.161,1.594-1.893,3.879-1.893,6.427
	c0,4.817,2.601,8.722,5.81,8.722c3.208,0,5.809-3.904,5.809-8.722c0-2.967-0.988-5.583-2.496-7.159
	c-0.864-3.304-1.91-13.273,16.989-13.273c21.76,0,13.444,25.732,9.812,34.849c-1.759,1.499-2.947,4.331-2.947,7.584
	c0,4.817,2.601,8.722,5.809,8.722c3.209,0,5.81-3.904,5.81-8.722c0-2.962-0.986-5.574-2.489-7.15
	c-0.825-5.967-2.418-31.621,31.139-31.621c35.423,0,36.414,15.673,33.961,22.927c-1.94,1.412-3.282,4.388-3.282,7.844
	c0,4.817,2.601,8.722,5.81,8.722c3.208,0,5.809-3.904,5.809-8.722c0-2.904-0.949-5.469-2.403-7.054
	C913.719,23.578,907.074,3,941.044,3c25.923,0,29.896,1.972,29.543,3.947c-1.805,1.48-3.028,4.354-3.028,7.657
	c0,4.817,2.601,8.722,5.81,8.722c3.208,0,5.809-3.904,5.809-8.722c0-2.574-0.747-4.879-1.928-6.476
	c-0.771-2.799-0.968-8.386,9.765-8.386c14,0,9.988,50.527,7.68,61.092c-1.068,2.79-1.943,3.973-2.943,6.665
	c-1.526,4.109,1.458,10.5,7.333,11.5L999,59.5v-2.513V-1"/>
<path opacity="0.8" fill="#D5E7C2" d="M60.224,42.665c0.7-0.236,1.721,0.923,2.276,2.585c0.556,1.661,0.441,3.198-0.262,3.432
	c-0.699,0.237-1.718-0.92-2.274-2.583C59.406,44.436,59.524,42.899,60.224,42.665z"/>
<path opacity="0.8" fill="#D5E7C2" d="M97.974,18.915c0.7-0.236,1.721,0.923,2.276,2.585c0.556,1.661,0.441,3.198-0.262,3.432
	c-0.699,0.237-1.718-0.92-2.274-2.583C97.156,20.686,97.274,19.149,97.974,18.915z"/>
<path opacity="0.8" fill="#D5E7C2" d="M123.724,48.165c0.7-0.236,1.721,0.923,2.276,2.585c0.556,1.66,0.441,3.198-0.262,3.432
	c-0.699,0.237-1.718-0.92-2.274-2.582C122.906,49.936,123.024,48.399,123.724,48.165z"/>
<path opacity="0.8" fill="#D5E7C2" d="M172.703,36.587c0.7-0.236,1.721,0.923,2.276,2.585c0.556,1.66,0.441,3.198-0.262,3.432
	c-0.699,0.237-1.718-0.92-2.274-2.582C171.884,38.358,172.002,36.822,172.703,36.587z"/>
<path opacity="0.8" fill="#D5E7C2" d="M195.453,15.587c0.7-0.236,1.721,0.923,2.276,2.585c0.556,1.66,0.441,3.198-0.262,3.432
	c-0.699,0.237-1.718-0.92-2.274-2.582C194.634,17.358,194.752,15.822,195.453,15.587z"/>
<path opacity="0.8" fill="#D5E7C2" d="M240.953,43.953c0.7-0.236,1.721,0.923,2.276,2.585c0.556,1.66,0.441,3.198-0.262,3.432
	c-0.699,0.237-1.718-0.92-2.274-2.582C240.134,45.724,240.252,44.187,240.953,43.953z"/>
<path opacity="0.8" fill="#D5E7C2" d="M340.953,39.626c0.7-0.236,1.721,0.923,2.276,2.585c0.556,1.66,0.441,3.198-0.262,3.432
	c-0.699,0.237-1.718-0.92-2.274-2.582C340.134,41.397,340.252,39.861,340.953,39.626z"/>
<path opacity="0.8" fill="#D5E7C2" d="M379.203,18.126c0.7-0.236,1.721,0.923,2.276,2.585c0.556,1.66,0.441,3.198-0.262,3.432
	c-0.699,0.237-1.718-0.92-2.274-2.582C378.384,19.897,378.502,18.361,379.203,18.126z"/>
<path opacity="0.8" fill="#D5E7C2" d="M442.953,40.626c0.7-0.236,1.721,0.923,2.276,2.585c0.556,1.66,0.441,3.198-0.262,3.432
	c-0.699,0.237-1.718-0.92-2.274-2.582C442.134,42.397,442.252,40.861,442.953,40.626z"/>
<path opacity="0.8" fill="#D5E7C2" d="M463.453,28.626c0.7-0.236,1.721,0.923,2.276,2.585c0.556,1.66,0.441,3.198-0.262,3.432
	c-0.699,0.237-1.718-0.92-2.274-2.582C462.634,30.397,462.752,28.861,463.453,28.626z"/>
<path opacity="0.8" fill="#D5E7C2" d="M524.953,20.376c0.699-0.236,1.721,0.923,2.275,2.585c0.557,1.66,0.441,3.198-0.262,3.432
	c-0.699,0.237-1.719-0.92-2.274-2.582C524.135,22.147,524.252,20.611,524.953,20.376z"/>
<path opacity="0.8" fill="#D5E7C2" d="M572.203,48.626c0.699-0.236,1.721,0.923,2.275,2.584c0.557,1.66,0.441,3.199-0.262,3.432
	c-0.699,0.238-1.719-0.92-2.274-2.582C571.385,50.397,571.502,48.861,572.203,48.626z"/>
<path opacity="0.8" fill="#D5E7C2" d="M652.203,20.876c0.699-0.236,1.721,0.923,2.275,2.584c0.557,1.66,0.441,3.199-0.262,3.432
	c-0.699,0.238-1.719-0.92-2.274-2.582C651.385,22.647,651.502,21.111,652.203,20.876z"/>
<path opacity="0.8" fill="#D5E7C2" d="M690.703,23.916c0.699-0.236,1.721,0.923,2.275,2.584c0.557,1.66,0.441,3.199-0.262,3.432
	c-0.699,0.238-1.719-0.92-2.274-2.582C689.885,25.687,690.002,24.15,690.703,23.916z"/>
<path opacity="0.8" fill="#D5E7C2" d="M727.703,42.549c0.699-0.236,1.721,0.923,2.275,2.584c0.557,1.66,0.441,3.199-0.262,3.432
	c-0.699,0.238-1.719-0.92-2.274-2.582C726.885,44.32,727.002,42.783,727.703,42.549z"/>
<path opacity="0.8" fill="#D5E7C2" d="M805.953,23.916c0.699-0.236,1.721,0.923,2.275,2.584c0.557,1.66,0.441,3.199-0.262,3.432
	c-0.699,0.238-1.719-0.92-2.274-2.582C805.135,25.687,805.252,24.15,805.953,23.916z"/>
<path opacity="0.8" fill="#D5E7C2" d="M839.203,46.166c0.699-0.236,1.721,0.923,2.275,2.584c0.557,1.66,0.441,3.199-0.262,3.432
	c-0.699,0.238-1.719-0.92-2.274-2.582C838.385,47.937,838.502,46.4,839.203,46.166z"/>
<path opacity="0.8" fill="#D5E7C2" d="M909.953,38.149c0.699-0.236,1.721,0.923,2.275,2.584c0.557,1.66,0.441,3.199-0.262,3.432
	c-0.699,0.238-1.719-0.92-2.274-2.582C909.135,39.92,909.252,38.383,909.953,38.149z"/>
<path opacity="0.8" fill="#D5E7C2" d="M970.953,17.838c0.699-0.236,1.721,0.923,2.275,2.584c0.557,1.66,0.441,3.199-0.262,3.432
	c-0.699,0.238-1.719-0.92-2.274-2.582C970.135,19.609,970.252,18.072,970.953,17.838z"/>
<path opacity="0.8" fill="#D5E7C2" d="M995.078,64.838c0.699-0.236,1.721,0.923,2.275,2.584c0.557,1.66,0.441,3.199-0.262,3.432
	c-0.699,0.238-1.719-0.92-2.274-2.582C994.26,66.609,994.377,65.072,995.078,64.838z"/>
<path opacity="0.8" fill="#D5E7C2" d="M263.703,24.993c0.7-0.236,1.721,0.923,2.276,2.585c0.556,1.66,0.441,3.198-0.262,3.432
	c-0.699,0.237-1.718-0.92-2.274-2.582C262.884,26.764,263.002,25.227,263.703,24.993z"/>
<rect fill="#A3CE8E" width="2" height="78"/>
<rect x="998" fill="#A3CE8E" width="2" height="78"/>
<path fill="none" stroke="#6EB860" stroke-width="2" stroke-miterlimit="10" d="M0,78"/>
</svg>
